<?xml version="1.0" encoding="UTF-8"?>
<svg id="Layer_2" data-name="Layer 2" xmlns="http://www.w3.org/2000/svg" viewBox="0 0 113 117.1">
  <defs>
    <style>
      .cls-1 {
        fill: #fff;
      }
    </style>
  </defs>
  <g id="Layer_1-2" data-name="Layer 1">
    <g>
      <path class="cls-1" d="M43.91,48.79c-13.45,0-24.39-10.94-24.39-24.39S30.46,0,43.91,0s24.39,10.94,24.39,24.39-10.94,24.39-24.39,24.39Zm0-43.91c-10.76,0-19.52,8.75-19.52,19.52s8.75,19.52,19.52,19.52,19.52-8.75,19.52-19.52S54.67,4.88,43.91,4.88Z"/>
      <path class="cls-1" d="M41.47,102.46H2.44c-1.35,0-2.44-1.09-2.44-2.44v-19.52c0-12.1,9.85-21.96,21.96-21.96h29.27c1.35,0,2.44,1.09,2.44,2.44s-1.09,2.44-2.44,2.44H21.96c-9.42,0-17.08,7.66-17.08,17.08v17.08H41.47c1.35,0,2.44,1.09,2.44,2.44s-1.09,2.44-2.44,2.44Z"/>
      <g>
        <path class="cls-1" d="M82.94,97.58c-6.72,0-12.2-5.47-12.2-12.2s5.47-12.2,12.2-12.2,12.2,5.47,12.2,12.2-5.47,12.2-12.2,12.2Zm0-19.52c-4.03,0-7.32,3.28-7.32,7.32s3.28,7.32,7.32,7.32,7.32-3.28,7.32-7.32-3.28-7.32-7.32-7.32Z"/>
        <path class="cls-1" d="M86.83,117.1h-7.78c-2.52,0-4.61-1.89-4.85-4.4l-.62-6.2c-1.48-.66-2.89-1.48-4.22-2.45l-5.7,2.57c-2.29,1.04-4.98,.17-6.23-2.01l-3.89-6.74c-1.26-2.18-.66-4.93,1.38-6.4l5.02-3.61c-.1-.76-.17-1.6-.17-2.47s.07-1.72,.17-2.47l-5.02-3.61c-2.04-1.47-2.63-4.22-1.38-6.4l3.89-6.74c1.26-2.18,3.93-3.04,6.23-2.01l5.7,2.57c1.33-.98,2.74-1.8,4.22-2.45l.62-6.2c.25-2.5,2.34-4.39,4.85-4.39h7.78c2.52,0,4.61,1.89,4.85,4.4l.62,6.2c1.48,.66,2.89,1.48,4.22,2.45l5.7-2.57c2.3-1.03,4.98-.17,6.23,2.01l3.89,6.74c1.26,2.18,.66,4.93-1.38,6.4l-5.02,3.61c.1,.76,.17,1.6,.17,2.47s-.07,1.72-.17,2.47l5.02,3.61c2.04,1.47,2.63,4.22,1.38,6.4l-3.88,6.73c-1.26,2.18-3.93,3.05-6.23,2.01l-5.7-2.57c-1.33,.98-2.74,1.8-4.22,2.45l-.62,6.21c-.25,2.5-2.34,4.39-4.85,4.39h0Zm-17.13-18.32c.56,0,1.12,.2,1.57,.57,1.65,1.39,3.48,2.44,5.43,3.16,.88,.32,1.5,1.12,1.59,2.05l.77,7.66h7.78l.77-7.66c.09-.93,.71-1.73,1.59-2.05,1.95-.71,3.78-1.78,5.43-3.16,.72-.6,1.72-.74,2.57-.35l7.05,3.18,3.89-6.74-6.24-4.48c-.76-.55-1.14-1.48-.98-2.41,.18-1.03,.33-2.08,.33-3.16s-.15-2.13-.33-3.16c-.16-.92,.22-1.85,.98-2.41l6.24-4.48-3.89-6.74-7.05,3.18c-.85,.39-1.85,.25-2.57-.35-1.65-1.39-3.47-2.44-5.43-3.16-.88-.32-1.5-1.12-1.59-2.05l-.77-7.68h-7.78l-.77,7.66c-.09,.93-.71,1.73-1.59,2.05-1.95,.71-3.78,1.78-5.43,3.16-.72,.6-1.71,.74-2.57,.35l-7.05-3.18-3.89,6.74,6.24,4.48c.76,.55,1.14,1.48,.98,2.41-.18,1.03-.33,2.08-.33,3.16s.15,2.13,.33,3.16c.16,.92-.22,1.85-.98,2.41l-6.24,4.48,3.89,6.74,7.05-3.18c.32-.14,.66-.2,1-.2h0Z"/>
      </g>
    </g>
  </g>
</svg>