<?xml version="1.0" encoding="UTF-8"?>
<svg id="Layer_2" data-name="Layer 2" xmlns="http://www.w3.org/2000/svg" viewBox="0 0 484 580" width="50" height="50">
  <defs>
    <style>
      .cls-1 {
        fill: #f15822;
      }
    </style>
  </defs>
  <g id="Layer_1-2" data-name="Layer 1">
    <g id="_14_hourglass_checked" data-name="14 hourglass checked">
      <g>
        <path class="cls-1" d="M256,224c-10.45,0-20.56,1.39-30.3,3.78-7.22-7.82-15.41-14.4-24.32-19.78,32.66-19.6,54.62-55.23,54.62-96V32h32V0H0V32H32V112c0,40.78,21.98,76.43,54.66,96.03-7.81,4.69-15.18,10.26-21.86,16.86-21.15,21.34-32.8,49.44-32.8,79.1v80H0v32H145.31c22.19,38.19,63.44,64,110.69,64,70.58,0,128-57.42,128-128s-57.42-128-128-128h0ZM64,32H224v32H64V32Zm0,80v-16H224v16c0,44.11-35.89,80-80,80s-80-35.89-80-80Zm23.42,135.52c15.31-15.17,35.41-23.52,56.58-23.52,18.05,0,35.01,6.03,48.8,16.83-34.9,19.92-59.58,55.7-64.05,97.47l-64.75,10.82v-45.12c0-21.17,8.35-41.28,23.42-56.48h0Zm-23.42,136.48v-2.43l65.52-10.94c.67,4.54,1.57,9.01,2.7,13.38H64Zm192,64c-52.94,0-96-43.06-96-96s43.06-96,96-96,96,43.06,96,96-43.06,96-96,96Z"/>
        <path class="cls-1" d="M312,289.38l-80,80-32-32-22.62,22.62,43.31,43.31c3.12,3.12,7.22,4.69,11.31,4.69s8.19-1.57,11.31-4.69l91.31-91.31-22.62-22.62Z"/>
      </g>
    </g>
  </g>
</svg>
