<?xml version="1.0" encoding="UTF-8"?>
<svg id="Layer_2" data-name="Layer 2" xmlns="http://www.w3.org/2000/svg" viewBox="0 0 97.59 97.59">
  <defs>
    <style>
        .cls-1 {
          fill: #ff530a;
        }
      </style>
  </defs>
  <g id="Layer_1-2" data-name="Layer 1">
    <path class="cls-1" d="M79.95,62.32l-5.34,5.35,8.58,8.52h-21.28v7.53h21.27l-8.57,8.56,5.34,5.31,17.64-17.64-17.64-17.63Zm3.58-16.64c-.8-7.48-4.92-14.15-11.31-18.32l-.88-.57,.61-.85c2-2.78,3.05-6.06,3.05-9.46,0-9.09-7.39-16.48-16.47-16.48-6.4,0-12.27,3.77-14.95,9.61l-.35,.75-.8-.2c-1.71-.41-3.56-.63-5.33-.63-13.45,0-24.38,10.93-24.38,24.38,0,5.08,1.53,9.95,4.43,14.09l.6,.85-.87,.56C7.53,55.5,1.46,65.32,.23,76.34c-.16,1.61-.23,2.89-.23,4.14,0,1.78,1.45,3.24,3.24,3.24H40.86v-7.53H7.85l.22-1.18c1.42-7.86,6.13-14.88,12.91-19.27l7.42-4.86-5.07-7.21c-2.02-2.87-3.09-6.25-3.09-9.76,0-9.3,7.56-16.86,16.86-16.86,1.53,0,3,.21,4.35,.6,6.77,1.8,11.76,7.66,12.4,14.59,.05,.51,.1,1.09,.1,1.67,0,3.05-.77,5.88-2.3,8.41-.23,.51-.5,.98-.78,1.35l-4.73,6.71h35.67c1.02,0,1.91-.89,1.91-1.9,0-1.07-.06-1.94-.19-2.8ZM50.86,13.78l-.71-.49,.38-.78c1.49-3.03,4.63-4.98,8-4.98,4.93,0,8.95,4.01,8.95,8.95,0,2.29-.9,4.06-1.66,5.15l-4.88,6.88-.61-1.92c-1.61-5.16-4.98-9.71-9.47-12.81Zm8.94,29.08l.45-1.32c.81-2.41,1.23-4.98,1.23-7.63,0-1.03-.06-1.9-.18-2.66l-.35-2.21,7.16,4.64c2.97,1.91,5.26,4.61,6.62,7.78l.6,1.4h-15.53Z"/>
  </g>
</svg>
