<?xml version="1.0" encoding="UTF-8"?>
<svg id="Layer_2" data-name="Layer 2" xmlns="http://www.w3.org/2000/svg" viewBox="0 0 97.99 87.05">
  <defs>
    <style>
        .cls-1 {
          fill: #ff530a;
        }
      </style>
  </defs>
  <g id="Layer_1-2" data-name="Layer 1">
    <g>
      <path class="cls-1" d="M85.12,33.95c.61-.49,1.17-1.04,1.67-1.62h8.72c1.37,0,2.49-1.11,2.49-2.49V10.42c0-5.74-4.67-10.42-10.42-10.42H13.93c-.66,0-1.29,.26-1.76,.73L.73,12.17c-.47,.47-.73,1.1-.73,1.76v15.92c0,1.37,1.11,2.49,2.49,2.49H14.67v5.47c0,.83,.42,1.61,1.11,2.07l4.48,2.98c.42,.28,.9,.42,1.38,.42s.96-.14,1.38-.42l4.48-2.98c.69-.46,1.11-1.24,1.11-2.07v-5.47h20.64v27.86h-11.44v-2.05c0-.66-.26-1.29-.73-1.76l-6.41-6.41c-.47-.47-1.1-.73-1.76-.73H14.15c-.66,0-1.29,.26-1.76,.73l-6.19,6.19c-.47,.47-.73,1.1-.73,1.76v2.27H2.49c-1.37,0-2.49,1.11-2.49,2.49v21.89c0,1.37,1.11,2.49,2.49,2.49H95.51c1.37,0,2.49-1.11,2.49-2.49v-21.89c0-1.37-1.11-2.49-2.49-2.49h-19.4v-18.95l9.01-7.29ZM4.97,14.96L14.96,4.97H87.58c3,0,5.44,2.44,5.44,5.44V27.36h-3.58c.19-.69,.33-1.39,.4-2.11,.36-3.44-.64-6.81-2.81-9.5-2.18-2.69-5.27-4.37-8.7-4.73-3.44-.36-6.81,.63-9.5,2.81l-16.73,13.53H4.97V14.96Zm18.65,21.52l-1.99,1.33-1.99-1.33v-4.14h3.98v4.14h0Zm-13.18,22.48l4.73-4.73h12.7l4.95,4.95v1.01H10.45v-1.24Zm82.57,23.12H4.97v-16.91H93.02v16.91h0Zm-38.8-21.89v-28.14l17.74-14.35c1.66-1.34,3.74-1.95,5.85-1.73,2.12,.22,4.02,1.26,5.36,2.91,1.34,1.66,1.95,3.73,1.73,5.85-.22,2.12-1.26,4.02-2.91,5.36l-9.93,8.03c-.58,.47-.92,1.18-.92,1.93v20.14h-16.91Z"/>
      <path class="cls-1" d="M26.25,70.28c-1.83,0-3.32,1.49-3.32,3.32s1.49,3.32,3.32,3.32,3.32-1.49,3.32-3.32-1.49-3.32-3.32-3.32Z"/>
      <path class="cls-1" d="M17.02,70.28c-1.83,0-3.32,1.49-3.32,3.32s1.49,3.32,3.32,3.32,3.32-1.49,3.32-3.32-1.49-3.32-3.32-3.32Z"/>
      <path class="cls-1" d="M29.85,24.37c2.13,0,4.12-.83,5.63-2.33,.9-.9,1.55-1.97,1.93-3.14h2.76c1.37,0,2.49-1.11,2.49-2.49s-1.11-2.49-2.49-2.49h-2.76c-.38-1.17-1.04-2.24-1.93-3.14-1.5-1.5-3.5-2.33-5.63-2.33s-4.12,.83-5.63,2.33h0c-1.5,1.5-2.33,3.5-2.33,5.63s.83,4.12,2.33,5.63c1.5,1.5,3.5,2.33,5.63,2.33Zm-2.11-10.07h0c.56-.56,1.31-.87,2.11-.87s1.55,.31,2.11,.87c.56,.56,.87,1.31,.87,2.11s-.31,1.55-.87,2.11c-.56,.56-1.31,.87-2.11,.87s-1.55-.31-2.11-.87c-.56-.56-.87-1.31-.87-2.11,0-.8,.31-1.55,.87-2.11Z"/>
      <path class="cls-1" d="M77,27c.17,0,.35-.01,.52-.04,1.81-.29,3.04-1.99,2.75-3.8-.29-1.8-1.99-3.04-3.8-2.75-1.81,.29-3.04,1.99-2.75,3.8,.26,1.63,1.67,2.8,3.27,2.8Z"/>
      <path class="cls-1" d="M84.56,78.93c1.37,0,2.49-1.11,2.49-2.49v-5.64c0-1.37-1.11-2.49-2.49-2.49s-2.49,1.11-2.49,2.49v5.64c0,1.37,1.11,2.49,2.49,2.49Z"/>
      <path class="cls-1" d="M71.13,70.8v5.64c0,1.37,1.11,2.49,2.49,2.49s2.49-1.11,2.49-2.49v-5.64c0-1.37-1.11-2.49-2.49-2.49s-2.49,1.11-2.49,2.49Z"/>
      <path class="cls-1" d="M62.68,68.31c-1.37,0-2.49,1.11-2.49,2.49v5.64c0,1.37,1.11,2.49,2.49,2.49s2.49-1.11,2.49-2.49v-5.64c0-1.37-1.11-2.49-2.49-2.49Z"/>
    </g>
  </g>
</svg>
