<?xml version="1.0" encoding="UTF-8"?>
<svg id="Layer_2" data-name="Layer 2" xmlns="http://www.w3.org/2000/svg" xmlns:xlink="http://www.w3.org/1999/xlink" viewBox="0 0 893.89 776.57">
  <defs>
    <style>
      .cls-1 {
        fill: url(#linear-gradient-2);
      }

      .cls-2 {
        clip-path: url(#clippath-2);
      }

      .cls-3 {
        clip-path: url(#clippath-1);
      }

      .cls-4 {
        fill: url(#Degradado_sin_nombre_3);
      }

      .cls-5 {
        opacity: .1;
      }

      .cls-6 {
        clip-path: url(#clippath);
      }

      .cls-7 {
        fill: none;
      }

      .cls-8 {
        fill: url(#linear-gradient);
      }

      .cls-9 {
        fill: #666;
      }
    </style>
    <clipPath id="clippath">
      <rect class="cls-7" x="141.19" y="261.33" width="595.28" height="140.93"/>
    </clipPath>
    <linearGradient id="Degradado_sin_nombre_3" data-name="Degradado sin nombre 3" x1="87.04" y1="409.37" x2="801.66" y2="409.37" gradientTransform="translate(-5.57 5.69) rotate(-.68)" gradientUnits="userSpaceOnUse">
      <stop offset="0" stop-color="#f68f5d"/>
      <stop offset=".34" stop-color="#f5834b"/>
      <stop offset=".37" stop-color="#f5824a"/>
      <stop offset=".73" stop-color="#f36e27"/>
      <stop offset=".95" stop-color="#f15d22"/>
    </linearGradient>
    <linearGradient id="linear-gradient" x1="87.04" y1="413.84" x2="801.66" y2="413.84" gradientTransform="translate(-5.57 5.69) rotate(-.68)" gradientUnits="userSpaceOnUse">
      <stop offset=".03" stop-color="#865b24"/>
      <stop offset=".06" stop-color="#8c6127"/>
      <stop offset=".1" stop-color="#9d7431"/>
      <stop offset=".14" stop-color="#b89341"/>
      <stop offset=".19" stop-color="#dfbe58"/>
      <stop offset=".21" stop-color="#f4d664"/>
      <stop offset=".3" stop-color="#f4d664"/>
      <stop offset=".51" stop-color="#865b24"/>
      <stop offset=".53" stop-color="#8c6127"/>
      <stop offset=".55" stop-color="#9d7431"/>
      <stop offset=".58" stop-color="#b89341"/>
      <stop offset=".61" stop-color="#dfbe58"/>
      <stop offset=".62" stop-color="#f4d664"/>
      <stop offset=".81" stop-color="#f4d664"/>
      <stop offset="1" stop-color="#865b24"/>
    </linearGradient>
    <clipPath id="clippath-1">
      <path class="cls-7" d="M133.08,415.86c-37.22-25.75-5.77-43.22-41.26-72.98l.6-8.77c123.37,32.93,233.86,26.76,359.94,22.32,90.69-3.2,186.93-12.71,272.23-.77,27.78,3.9,55.02,6.34,82.24,16.48-86.18,56.99-172.06,101.34-260.36,121.31-115.55,26.04-306.62-3.83-413.39-77.59Z"/>
    </clipPath>
    <clipPath id="clippath-2">
      <path class="cls-7" d="M722.14,327.21l-15.44-3.8,3.85,19.78,11.59-15.98Zm17.33,4.26l-15.44-3.8,3.85,19.78,11.59-15.98Zm-12.8,16.98l-15.44-3.8,3.85,19.78,11.59-15.98Zm61.82,136.01l-15.44-3.8,3.85,19.78,11.59-15.98Zm-44.49-131.74l-15.44-3.8,3.85,19.78,11.59-15.98Zm-34.66-8.53l-15.44-3.8,3.85,19.78,11.59-15.98Zm-17.33-4.26l-15.44-3.8,3.85,19.78,11.59-15.98Zm64.8-4.19l-15.44-3.8,3.85,19.78,11.59-15.98Zm-69.32-17.06l-15.44-3.8,3.85,19.78,11.59-15.98Zm17.33,4.26l-15.44-3.8,3.85,19.78,11.59-15.98Zm-30.14,12.72l-15.44-3.8,3.85,19.78,11.59-15.98Zm138.65,34.11l-15.44-3.8,3.85,19.78,11.59-15.98Zm-4.53-21.25l-15.44-3.8,3.85,19.78,11.59-15.98Zm-3.75,59.47l-15.44-3.8,3.85,19.78,11.59-15.98Zm-8.28,38.23l-15.44-3.8,3.85,19.78,11.59-15.98Zm-35.44-89.25l-15.44-3.8,3.85,19.78,11.59-15.98Zm34.66,8.53l-15.44-3.8,3.85,19.78,11.59-15.98Zm-21.86-25.51l-15.44-3.8,3.85,19.78,11.59-15.98Zm4.53,21.25l-15.44-3.8,3.85,19.78,11.59-15.98Zm12.8-16.98l-15.44-3.8,3.85,19.78,11.59-15.98Zm-186.12-25.66l-15.44-3.8,3.85,19.78,11.59-15.98Zm-56.52-34.04l-15.44-3.8,3.85,19.78,11.59-15.98Zm-17.33-4.26l-15.44-3.8,3.85,19.78,11.59-15.98Zm4.53,21.25l-15.44-3.8,3.85,19.78,11.59-15.98Zm30.14-12.72l-15.44-3.8,3.85,19.78,11.59-15.98Zm-12.8,16.98l-15.44-3.8,3.85,19.78,11.59-15.98Zm17.33,4.26l-15.44-3.8,3.85,19.78,11.59-15.98Zm-51.99-12.79l-15.44-3.8,3.85,19.78,11.59-15.98Zm-17.33-4.26l-15.44-3.8,3.85,19.78,11.59-15.98Zm-4.53-21.25l-15.44-3.8,3.85,19.78,11.59-15.98Zm17.33,4.26l-15.44-3.8,3.85,19.78,11.59-15.98Zm266.05,246.65l-15.44-3.8,3.85,19.78,11.59-15.98Zm-196.72-229.6l-15.44-3.8,3.85,19.78,11.59-15.98Zm51.99,12.79l-15.44-3.8,3.85,19.78,11.59-15.98Zm4.53,21.25l-15.44-3.8,3.85,19.78,11.59-15.98Zm17.33,4.26l-15.44-3.8,3.85,19.78,11.59-15.98Zm-4.53-21.25l-15.44-3.8,3.85,19.78,11.59-15.98Zm-30.14,12.72l-15.44-3.8,3.85,19.78,11.59-15.98Zm-21.86-25.51l-15.44-3.8,3.85,19.78,11.59-15.98Zm-12.8,16.98l-15.44-3.8,3.85,19.78,11.59-15.98Zm82.13,.08l-15.44-3.8,3.85,19.78,11.59-15.98Zm-51.99-12.79l-15.44-3.8,3.85,19.78,11.59-15.98Zm112.06,287.99l11.59-15.98-15.44-3.8,3.85,19.78Zm-203.45-29.93l11.59-15.98-15.44-3.8,3.85,19.78Zm12.8-16.98l11.59-15.98-15.44-3.8,3.85,19.78Zm232.37,18.21l-15.44-3.8,3.85,19.78,11.59-15.98Zm-267.03-26.74l11.59-15.98-15.44-3.8,3.85,19.78Zm4.53,21.25l11.59-15.98-15.44-3.8,3.85,19.78Zm64.8-4.19l11.59-15.98-15.44-3.8,3.85,19.78Zm-12.8,16.98l11.59-15.98-15.44-3.8,3.85,19.78Zm-69.32-17.06l11.59-15.98-15.44-3.8,3.85,19.78Zm51.99,12.79l11.59-15.98-15.44-3.8,3.85,19.78Zm12.8-16.98l11.59-15.98-15.44-3.8,3.85,19.78Zm-34.66-8.53l11.59-15.98-15.44-3.8,3.85,19.78Zm-86.66-21.32l11.59-15.98-15.44-3.8,3.85,19.78Zm-12.8,16.98l11.59-15.98-15.44-3.8,3.85,19.78Zm-17.33-4.26l11.59-15.98-15.44-3.8,3.85,19.78Zm34.66,8.53l11.59-15.98-15.44-3.8,3.85,19.78Zm-21.86-25.51l11.59-15.98-15.44-3.8,3.85,19.78Zm69.32,17.06l11.59-15.98-15.44-3.8,3.85,19.78Zm-12.8,16.98l11.59-15.98-15.44-3.8,3.85,19.78Zm-21.86-25.51l11.59-15.98-15.44-3.8,3.85,19.78Zm17.33,4.26l11.59-15.98-15.44-3.8,3.85,19.78Zm-12.8,16.98l11.59-15.98-15.44-3.8,3.85,19.78Zm121.32,29.85l11.59-15.98-15.44-3.8,3.85,19.78Zm134.12,12.87l11.59-15.98-15.44-3.8,3.85,19.78Zm-12.8,16.98l11.59-15.98-15.44-3.8,3.85,19.78Zm17.33,4.26l11.59-15.98-15.44-3.8,3.85,19.78Zm-39.19-29.77l11.59-15.98-15.44-3.8,3.85,19.78Zm4.53,21.25l11.59-15.98-15.44-3.8,3.85,19.78Zm12.8-16.98l11.59-15.98-15.44-3.8,3.85,19.78Zm-211.52-292.33l-15.44-3.8,3.85,19.78,11.59-15.98Zm263.51,305.13l11.59-15.98-15.44-3.8,3.85,19.78Zm16.12,5.26l-15.44-3.8,3.85,19.78,11.59-15.98Zm-28.92,11.72l11.59-15.98-15.44-3.8,3.85,19.78Zm-86.66-21.32l11.59-15.98-15.44-3.8,3.85,19.78Zm-21.86-25.51l11.59-15.98-15.44-3.8,3.85,19.78Zm-12.8,16.98l11.59-15.98-15.44-3.8,3.85,19.78Zm-4.53-21.25l11.59-15.98-15.44-3.8,3.85,19.78Zm-12.8,16.98l11.59-15.98-15.44-3.8,3.85,19.78Zm69.32,17.06l11.59-15.98-15.44-3.8,3.85,19.78Zm-73.85-38.3l11.59-15.98-15.44-3.8,3.85,19.78Zm39.19,29.77l11.59-15.98-15.44-3.8,3.85,19.78Zm30.14-12.72l11.59-15.98-15.44-3.8,3.85,19.78Zm-17.33-4.26l11.59-15.98-15.44-3.8,3.85,19.78Zm-321.02-119.25l11.59-15.98-15.44-3.8,3.85,19.78Zm-121.32-29.85l11.59-15.98-15.44-3.8,3.85,19.78Zm17.33,4.26l11.59-15.98-15.44-3.8,3.85,19.78Zm-12.8,16.98l11.59-15.98-15.44-3.8,3.85,19.78Zm-17.33-4.26l11.59-15.98-15.44-3.8,3.85,19.78Zm-99.56-83.6l3.85,19.78,11.59-15.98-15.44-3.8Zm151.55,96.39l11.59-15.98-15.44-3.8,3.85,19.78Zm174.09,123.36l11.59-15.98-15.44-3.8,3.85,19.78Zm-191.42-127.63l11.59-15.98-15.44-3.8,3.85,19.78Zm-51.99-12.79l11.59-15.98-15.44-3.8,3.85,19.78Zm64.8-4.19l11.59-15.98-15.44-3.8,3.85,19.78Zm-116.79-8.6l11.59-15.98-15.44-3.8,3.85,19.78Zm-4.53-21.25l11.59-15.98-15.44-3.8,3.85,19.78Zm-12.8,16.98l11.59-15.98-15.44-3.8,3.85,19.78Zm-4.53-21.25l11.59-15.98-15.44-3.8,3.85,19.78Zm-12.8,16.98l11.59-15.98-15.44-3.8,3.85,19.78Zm173.31,42.64l11.59-15.98-15.44-3.8,3.85,19.78Zm-103.99-25.59l11.59-15.98-15.44-3.8,3.85,19.78Zm-4.53-21.25l11.59-15.98-15.44-3.8,3.85,19.78Zm-17.33-4.26l11.59-15.98-15.44-3.8,3.85,19.78Zm34.66,8.53l11.59-15.98-15.44-3.8,3.85,19.78Zm-30.14,12.72l11.59-15.98-15.44-3.8,3.85,19.78Zm47.47-8.45l11.59-15.98-15.44-3.8,3.85,19.78Zm177.84,63.89l11.59-15.98-15.44-3.8,3.85,19.78Zm34.66,8.53l11.59-15.98-15.44-3.8,3.85,19.78Zm12.8-16.98l11.59-15.98-15.44-3.8,3.85,19.78Zm39.19,29.77l11.59-15.98-15.44-3.8,3.85,19.78Zm-73.85-38.3l11.59-15.98-15.44-3.8,3.85,19.78Zm17.33,4.26l11.59-15.98-15.44-3.8,3.85,19.78Zm21.86,25.51l11.59-15.98-15.44-3.8,3.85,19.78Zm17.33,4.26l11.59-15.98-15.44-3.8,3.85,19.78Zm12.8-16.98l11.59-15.98-15.44-3.8,3.85,19.78Zm-17.33-4.26l11.59-15.98-15.44-3.8,3.85,19.78Zm-155.98-38.38l11.59-15.98-15.44-3.8,3.85,19.78Zm39.19,29.77l11.59-15.98-15.44-3.8,3.85,19.78Zm-4.53-21.25l11.59-15.98-15.44-3.8,3.85,19.78Zm-12.8,16.98l11.59-15.98-15.44-3.8,3.85,19.78Zm-4.53-21.25l11.59-15.98-15.44-3.8,3.85,19.78Zm-12.8,16.98l11.59-15.98-15.44-3.8,3.85,19.78Zm69.32,17.06l11.59-15.98-15.44-3.8,3.85,19.78Zm-4.53-21.25l11.59-15.98-15.44-3.8,3.85,19.78Zm17.33,4.26l11.59-15.98-15.44-3.8,3.85,19.78Zm43.72,51.02l11.59-15.98-15.44-3.8,3.85,19.78Zm-73.85-38.3l11.59-15.98-15.44-3.8,3.85,19.78ZM172.06,212l-15.44-3.8,3.85,19.78,11.59-15.98Zm186.12,25.66l-15.44-3.8,3.85,19.78,11.59-15.98Zm-12.8,16.98l-15.44-3.8,3.85,19.78,11.59-15.98Zm-51.99-12.79l-15.44-3.8,3.85,19.78,11.59-15.98Zm47.47-8.45l-15.44-3.8,3.85,19.78,11.59-15.98Zm34.66,8.53l-15.44-3.8,3.85,19.78,11.59-15.98Zm4.53,21.25l-15.44-3.8,3.85,19.78,11.59-15.98Zm-69.32-17.06l-15.44-3.8,3.85,19.78,11.59-15.98Zm17.33,4.26l-15.44-3.8,3.85,19.78,11.59-15.98Zm-21.86-25.51l-15.44-3.8,3.85,19.78,11.59-15.98Zm17.33,4.26l-15.44-3.8,3.85,19.78,11.59-15.98Zm39.19,29.77l-15.44-3.8,3.85,19.78,11.59-15.98Zm82.13,.08l-15.44-3.8,3.85,19.78,11.59-15.98Zm4.53,21.25l-15.44-3.8,3.85,19.78,11.59-15.98Zm12.8-16.98l-15.44-3.8,3.85,19.78,11.59-15.98Zm4.53,21.25l-15.44-3.8,3.85,19.78,11.59-15.98Zm-34.66-8.53l-15.44-3.8,3.85,19.78,11.59-15.98Zm-4.53-21.25l-15.44-3.8,3.85,19.78,11.59-15.98Zm-30.14,12.72l-15.44-3.8,3.85,19.78,11.59-15.98Zm-4.53-21.25l-15.44-3.8,3.85,19.78,11.59-15.98Zm17.33,4.26l-15.44-3.8,3.85,19.78,11.59-15.98Zm4.53,21.25l-15.44-3.8,3.85,19.78,11.59-15.98Zm64.8-4.19l-15.44-3.8,3.85,19.78,11.59-15.98ZM202.2,199.28l-15.44-3.8,3.85,19.78,11.59-15.98Zm-47.47,8.45l-15.44-3.8,3.85,19.78,11.59-15.98Zm12.8-16.98l-15.44-3.8,3.85,19.78,11.59-15.98Zm121.32,29.85l-15.44-3.8,3.85,19.78,11.59-15.98Zm-99.46-4.34l-15.44-3.8,3.85,19.78,11.59-15.98Zm-92.27,98.09l3.85,19.78,11.59-15.98-15.44-3.8Zm16.55-76.46l3.85,19.78,11.59-15.98-15.44-3.8Zm36.52-51.41l-15.44-3.8,3.85,19.78,11.59-15.98Zm-44.8,89.64l3.85,19.78,11.59-15.98-15.44-3.8Zm16.55-76.46l3.85,19.78,11.59-15.98-15.44-3.8Zm62.91-4.65l-15.44-3.8,3.85,19.78,11.59-15.98Zm21.86,25.51l-15.44-3.8,3.85,19.78,11.59-15.98Zm47.47-8.45l-15.44-3.8,3.85,19.78,11.59-15.98Zm4.53,21.25l-15.44-3.8,3.85,19.78,11.59-15.98Zm17.33,4.26l-15.44-3.8,3.85,19.78,11.59-15.98Zm-4.53-21.25l-15.44-3.8,3.85,19.78,11.59-15.98Zm-47.47,8.45l-15.44-3.8,3.85,19.78,11.59-15.98Zm-4.53-21.25l-15.44-3.8,3.85,19.78,11.59-15.98Zm17.33,4.26l-15.44-3.8,3.85,19.78,11.59-15.98Zm4.53,21.25l-15.44-3.8,3.85,19.78,11.59-15.98Zm137.67,254.03l11.59-15.98-15.44-3.8,3.85,19.78Zm355.89-172.86l-15.44-3.8,3.85,19.78,11.59-15.98Zm12.8-16.98l-15.44-3.8,3.85,19.78,11.59-15.98Zm-17.33-4.26l-15.44-3.8,3.85,19.78,11.59-15.98Zm21.86,25.51l-15.44-3.8,3.85,19.78,11.59-15.98Zm12.8-16.98l-15.44-3.8,3.85,19.78,11.59-15.98Zm-64.8,4.19l-15.44-3.8,3.85,19.78,11.59-15.98Zm-4.53-21.25l-15.44-3.8,3.85,19.78,11.59-15.98Zm73.85,38.3l-15.44-3.8,3.85,19.78,11.59-15.98Zm-264.5-85.21l-15.44-3.8,3.85,19.78,11.59-15.98Zm207.97,51.17l-15.44-3.8,3.85,19.78,11.59-15.98Zm4.53,21.25l-15.44-3.8,3.85,19.78,11.59-15.98Zm116.79,8.6l-15.44-3.8,3.85,19.78,11.59-15.98Zm-8.28,38.23l-15.44-3.8,3.85,19.78,11.59-15.98Zm-8.28,38.23l-15.44-3.8,3.85,19.78,11.59-15.98Zm3.75-59.47l-15.44-3.8,3.85,19.78,11.59-15.98Zm-12.03,97.7l-15.44-3.8,3.85,19.78,11.59-15.98Zm-9.83-123.21l-15.44-3.8,3.85,19.78,11.59-15.98Zm-12.8,16.98l-15.44-3.8,3.85,19.78,11.59-15.98Zm30.14-12.72l-15.44-3.8,3.85,19.78,11.59-15.98Zm-34.66-8.53l-15.44-3.8,3.85,19.78,11.59-15.98Zm21.86,25.51l-15.44-3.8,3.85,19.78,11.59-15.98Zm-281.83-89.48l-15.44-3.8,3.85,19.78,11.59-15.98Zm34.66,8.53l-15.44-3.8,3.85,19.78,11.59-15.98Zm34.66,8.53l-15.44-3.8,3.85,19.78,11.59-15.98Zm-47.47,8.45l-15.44-3.8,3.85,19.78,11.59-15.98Zm30.14-12.72l-15.44-3.8,3.85,19.78,11.59-15.98Zm4.53,21.25l-15.44-3.8,3.85,19.78,11.59-15.98Zm99.46,4.34l-15.44-3.8,3.85,19.78,11.59-15.98Zm-138.65-34.11l-15.44-3.8,3.85,19.78,11.59-15.98Zm-30.14,12.72l-15.44-3.8,3.85,19.78,11.59-15.98Zm291.66,212.69l-15.44-3.8,3.85,19.78,11.59-15.98Zm-274.33-208.42l-15.44-3.8,3.85,19.78,11.59-15.98Zm34.66,8.53l-15.44-3.8,3.85,19.78,11.59-15.98Zm99.46,4.34l-15.44-3.8,3.85,19.78,11.59-15.98Zm-12.8,16.98l-15.44-3.8,3.85,19.78,11.59-15.98Zm-4.53-21.25l-15.44-3.8,3.85,19.78,11.59-15.98Zm21.86,25.51l-15.44-3.8,3.85,19.78,11.59-15.98Zm-39.19-29.77l-15.44-3.8,3.85,19.78,11.59-15.98Zm-17.33-4.26l-15.44-3.8,3.85,19.78,11.59-15.98Zm4.53,21.25l-15.44-3.8,3.85,19.78,11.59-15.98Zm-17.33-4.26l-15.44-3.8,3.85,19.78,11.59-15.98Zm34.66,8.53l-15.44-3.8,3.85,19.78,11.59-15.98Zm51.99,12.79l-15.44-3.8,3.85,19.78,11.59-15.98Zm-134.33,287.77l11.59-15.98-15.44-3.8,3.85,19.78Zm-12.8,16.98l11.59-15.98-15.44-3.8,3.85,19.78Zm-4.53-21.25l11.59-15.98-15.44-3.8,3.85,19.78Zm-17.33-4.26l11.59-15.98-15.44-3.8,3.85,19.78Zm39.19,29.77l11.59-15.98-15.44-3.8,3.85,19.78Zm-34.66-8.53l11.59-15.98-15.44-3.8,3.85,19.78Zm64.8-4.19l11.59-15.98-15.44-3.8,3.85,19.78Zm4.53,21.25l11.59-15.98-15.44-3.8,3.85,19.78Zm-21.86-25.51l11.59-15.98-15.44-3.8,3.85,19.78Zm4.53,21.25l11.59-15.98-15.44-3.8,3.85,19.78Zm-69.32-17.06l11.59-15.98-15.44-3.8,3.85,19.78Zm99.46,4.34l11.59-15.98-15.44-3.8,3.85,19.78Zm-155.98-38.38l11.59-15.98-15.44-3.8,3.85,19.78Zm348.39-53.91l-15.44-3.8,3.85,19.78,11.59-15.98Zm-365.72,49.64l11.59-15.98-15.44-3.8,3.85,19.78Zm4.53,21.25l11.59-15.98-15.44-3.8,3.85,19.78Zm30.14-12.72l11.59-15.98-15.44-3.8,3.85,19.78Zm4.53,21.25l11.59-15.98-15.44-3.8,3.85,19.78Zm30.14-12.72l11.59-15.98-15.44-3.8,3.85,19.78Zm-12.8,16.98l11.59-15.98-15.44-3.8,3.85,19.78Zm-4.53-21.25l11.59-15.98-15.44-3.8,3.85,19.78Zm-30.14,12.72l11.59-15.98-15.44-3.8,3.85,19.78Zm290.1,51.25l11.59-15.98-15.44-3.8,3.85,19.78Zm-12.8,16.98l11.59-15.98-15.44-3.8,3.85,19.78Zm-34.66-8.53l11.59-15.98-15.44-3.8,3.85,19.78Zm17.33,4.26l11.59-15.98-15.44-3.8,3.85,19.78Zm-4.53-21.25l11.59-15.98-15.44-3.8,3.85,19.78Zm17.33,4.26l11.59-15.98-15.44-3.8,3.85,19.78Zm62.81-83.91l-15.44-3.8,3.85,19.78,11.59-15.98Zm-40.95,109.42l11.59-15.98-15.44-3.8,3.85,19.78Zm32.67-71.19l-15.44-3.8,3.85,19.78,11.59-15.98Zm-8.28,38.23l-15.44-3.8,3.85,19.78,11.59-15.98Zm-111.05,11.64l11.59-15.98-15.44-3.8,3.85,19.78Zm-21.86-25.51l11.59-15.98-15.44-3.8,3.85,19.78Zm-12.8,16.98l11.59-15.98-15.44-3.8,3.85,19.78Zm-4.53-21.25l11.59-15.98-15.44-3.8,3.85,19.78Zm21.86,25.51l11.59-15.98-15.44-3.8,3.85,19.78Zm12.8-16.98l11.59-15.98-15.44-3.8,3.85,19.78Zm34.66,8.53l11.59-15.98-15.44-3.8,3.85,19.78Zm-17.33-4.26l11.59-15.98-15.44-3.8,3.85,19.78Zm4.53,21.25l11.59-15.98-15.44-3.8,3.85,19.78Zm-69.32-17.06l11.59-15.98-15.44-3.8,3.85,19.78ZM145.47,465.88l11.59-15.98-15.44-3.8,3.85,19.78Zm242.64,59.7l11.59-15.98-15.44-3.8,3.85,19.78Zm-225.31-55.44l11.59-15.98-15.44-3.8,3.85,19.78Zm-4.53-21.25l11.59-15.98-15.44-3.8,3.85,19.78Zm-17.33-4.26l11.59-15.98-15.44-3.8,3.85,19.78Zm-12.8,16.98l11.59-15.98-15.44-3.8,3.85,19.78Zm82.13,.08l11.59-15.98-15.44-3.8,3.85,19.78Zm-17.33-4.26l11.59-15.98-15.44-3.8,3.85,19.78Zm4.53,21.25l11.59-15.98-15.44-3.8,3.85,19.78Zm-21.86-25.51l11.59-15.98-15.44-3.8,3.85,19.78ZM109.16,216.65l3.85,19.78,11.59-15.98-15.44-3.8Zm14.46,223.72l11.59-15.98-15.44-3.8,3.85,19.78Zm-39.29-109.03l3.85,19.78,11.59-15.98-15.44-3.8Zm-8.28,38.23l3.85,19.78,11.59-15.98-15.44-3.8Zm16.55-76.46l3.85,19.78,11.59-15.98-15.44-3.8Zm18.21,164.24l11.59-15.98-15.44-3.8,3.85,19.78Zm-39.19-29.77l11.59-15.98-15.44-3.8,3.85,19.78Zm29.26-172.69l3.85,19.78,11.59-15.98-15.44-3.8Zm-24.73,193.94l11.59-15.98-15.44-3.8,3.85,19.78Zm30.14-12.72l11.59-15.98-15.44-3.8,3.85,19.78Zm-12.8,16.98l11.59-15.98-15.44-3.8,3.85,19.78Zm-4.53-21.25l11.59-15.98-15.44-3.8,3.85,19.78Zm91.18,42.57l11.59-15.98-15.44-3.8,3.85,19.78Zm121.32,29.85l11.59-15.98-15.44-3.8,3.85,19.78Zm34.66,8.53l11.59-15.98-15.44-3.8,3.85,19.78Zm12.8-16.98l11.59-15.98-15.44-3.8,3.85,19.78Zm-30.14,12.72l11.59-15.98-15.44-3.8,3.85,19.78Zm-4.53-21.25l11.59-15.98-15.44-3.8,3.85,19.78Zm17.33,4.26l11.59-15.98-15.44-3.8,3.85,19.78Zm51.99,12.79l11.59-15.98-15.44-3.8,3.85,19.78Zm-12.8,16.98l11.59-15.98-15.44-3.8,3.85,19.78Zm-4.53-21.25l11.59-15.98-15.44-3.8,3.85,19.78Zm-12.8,16.98l11.59-15.98-15.44-3.8,3.85,19.78Zm-56.52-34.04l11.59-15.98-15.44-3.8,3.85,19.78Zm-82.13-.08l11.59-15.98-15.44-3.8,3.85,19.78Zm17.33,4.26l11.59-15.98-15.44-3.8,3.85,19.78Zm17.33,4.26l11.59-15.98-15.44-3.8,3.85,19.78Zm-21.86-25.51l11.59-15.98-15.44-3.8,3.85,19.78Zm17.33,4.26l11.59-15.98-15.44-3.8,3.85,19.78Zm34.66,8.53l11.59-15.98-15.44-3.8,3.85,19.78Zm-17.33-4.26l11.59-15.98-15.44-3.8,3.85,19.78Zm21.86,25.51l11.59-15.98-15.44-3.8,3.85,19.78Zm-17.33-4.26l11.59-15.98-15.44-3.8,3.85,19.78ZM163.01,169.5l-15.44-3.8,3.85,19.78,11.59-15.98Zm151.45,17.13l-15.44-3.8,3.85,19.78,11.59-15.98Zm86.66,21.32l-15.44-3.8,3.85,19.78,11.59-15.98Zm-12.8,16.98l-15.44-3.8,3.85,19.78,11.59-15.98Zm-34.66-8.53l-15.44-3.8,3.85,19.78,11.59-15.98Zm30.14-12.72l-15.44-3.8,3.85,19.78,11.59-15.98Zm-12.8,16.98l-15.44-3.8,3.85,19.78,11.59-15.98Zm-51.99-12.79l-15.44-3.8,3.85,19.78,11.59-15.98Zm12.8-16.98l-15.44-3.8,3.85,19.78,11.59-15.98Zm17.33,4.26l-15.44-3.8,3.85,19.78,11.59-15.98Zm-12.8,16.98l-15.44-3.8,3.85,19.78,11.59-15.98Zm30.14-12.72l-15.44-3.8,3.85,19.78,11.59-15.98Zm103.99,25.59l-15.44-3.8,3.85,19.78,11.59-15.98Zm-64.8,4.19l-15.44-3.8,3.85,19.78,11.59-15.98Zm69.32,17.06l-15.44-3.8,3.85,19.78,11.59-15.98Zm12.8-16.98l-15.44-3.8,3.85,19.78,11.59-15.98Zm-34.66-8.53l-15.44-3.8,3.85,19.78,11.59-15.98Zm4.53,21.25l-15.44-3.8,3.85,19.78,11.59-15.98Zm-34.66-8.53l-15.44-3.8,3.85,19.78,11.59-15.98Zm-4.53-21.25l-15.44-3.8,3.85,19.78,11.59-15.98Zm21.86,25.51l-15.44-3.8,3.85,19.78,11.59-15.98Zm-4.53-21.25l-15.44-3.8,3.85,19.78,11.59-15.98Zm-168.79-21.4l-15.44-3.8,3.85,19.78,11.59-15.98Zm-51.99-12.79l-15.44-3.8,3.85,19.78,11.59-15.98Zm-34.66-8.53l-15.44-3.8,3.85,19.78,11.59-15.98Zm17.33,4.26l-15.44-3.8,3.85,19.78,11.59-15.98Zm12.8-16.98l-15.44-3.8,3.85,19.78,11.59-15.98Zm-34.66-8.53l-15.44-3.8,3.85,19.78,11.59-15.98Zm17.33,4.26l-15.44-3.8,3.85,19.78,11.59-15.98Zm299.16,93.74l-15.44-3.8,3.85,19.78,11.59-15.98ZM129.56,159.98l11.59-15.98-15.44-3.8,3.85,19.78Zm172.1,43.64l-15.44-3.8,3.85,19.78,11.59-15.98Zm-143.18-55.36l-15.44-3.8,3.85,19.78,11.59-15.98Zm-12.8,16.98l-15.44-3.8,3.85,19.78,11.59-15.98Zm138.65,34.11l-15.44-3.8,3.85,19.78,11.59-15.98Zm-166.9-20.93l3.85,19.78,11.59-15.98-15.44-3.8Zm162.37-.31l-15.44-3.8,3.85,19.78,11.59-15.98Zm17.33,4.26l-15.44-3.8,3.85,19.78,11.59-15.98Zm-51.99-12.79l-15.44-3.8,3.85,19.78,11.59-15.98Zm-12.8,16.98l-15.44-3.8,3.85,19.78,11.59-15.98Zm-4.53-21.25l-15.44-3.8,3.85,19.78,11.59-15.98Zm34.66,8.53l-15.44-3.8,3.85,19.78,11.59-15.98Zm-12.8,16.98l-15.44-3.8,3.85,19.78,11.59-15.98Zm3.54,241.16l11.59-15.98-15.44-3.8,3.85,19.78Zm209.74-88.02l-15.44-3.8,3.85,19.78,11.59-15.98Zm17.33,4.26l-15.44-3.8,3.85,19.78,11.59-15.98Zm-12.8,16.98l-15.44-3.8,3.85,19.78,11.59-15.98Zm134.12,12.87l-15.44-3.8,3.85,19.78,11.59-15.98Zm-103.99-25.59l-15.44-3.8,3.85,19.78,11.59-15.98Zm-12.8,16.98l-15.44-3.8,3.85,19.78,11.59-15.98Zm-56.52-34.04l-15.44-3.8,3.85,19.78,11.59-15.98Zm4.53,21.25l-15.44-3.8,3.85,19.78,11.59-15.98Zm-17.33-4.26l-15.44-3.8,3.85,19.78,11.59-15.98Zm30.14-12.72l-15.44-3.8,3.85,19.78,11.59-15.98Zm4.53,21.25l-15.44-3.8,3.85,19.78,11.59-15.98Zm121.32,29.85l-15.44-3.8,3.85,19.78,11.59-15.98Zm-4.53-21.25l-15.44-3.8,3.85,19.78,11.59-15.98Zm21.86,25.51l-15.44-3.8,3.85,19.78,11.59-15.98Zm-34.66-8.53l-15.44-3.8,3.85,19.78,11.59-15.98Zm30.14-12.72l-15.44-3.8,3.85,19.78,11.59-15.98Zm-34.66-8.53l-15.44-3.8,3.85,19.78,11.59-15.98Zm-34.66-8.53l-15.44-3.8,3.85,19.78,11.59-15.98Zm17.33,4.26l-15.44-3.8,3.85,19.78,11.59-15.98Zm-12.8,16.98l-15.44-3.8,3.85,19.78,11.59-15.98Zm17.33,4.26l-15.44-3.8,3.85,19.78,11.59-15.98Zm-34.66-8.53l-15.44-3.8,3.85,19.78,11.59-15.98Zm-225.31-55.44l-15.44-3.8,3.85,19.78,11.59-15.98Zm12.8-16.98l-15.44-3.8,3.85,19.78,11.59-15.98Zm17.33,4.26l-15.44-3.8,3.85,19.78,11.59-15.98Zm-34.66-8.53l-15.44-3.8,3.85,19.78,11.59-15.98Zm21.86,25.51l-15.44-3.8,3.85,19.78,11.59-15.98Zm-51.99-12.79l-15.44-3.8,3.85,19.78,11.59-15.98Zm69.32,17.06l-15.44-3.8,3.85,19.78,11.59-15.98Zm-51.99-12.79l-15.44-3.8,3.85,19.78,11.59-15.98Zm-21.86-25.51l-15.44-3.8,3.85,19.78,11.59-15.98Zm17.33,4.26l-15.44-3.8,3.85,19.78,11.59-15.98Zm108.51,46.83l-15.44-3.8,3.85,19.78,11.59-15.98Zm12.8-16.98l-15.44-3.8,3.85,19.78,11.59-15.98Zm-51.99-12.79l-15.44-3.8,3.85,19.78,11.59-15.98Zm69.33,17.06l-15.44-3.8,3.85,19.78,11.59-15.98Zm17.33,4.26l-15.44-3.8,3.85,19.78,11.59-15.98Zm-12.8,16.98l-15.44-3.8,3.85,19.78,11.59-15.98Zm-17.33-4.26l-15.44-3.8,3.85,19.78,11.59-15.98Zm-51.99-12.79l-15.44-3.8,3.85,19.78,11.59-15.98Zm30.14-12.72l-15.44-3.8,3.85,19.78,11.59-15.98Zm-17.33-4.26l-15.44-3.8,3.85,19.78,11.59-15.98Zm4.53,21.25l-15.44-3.8,3.85,19.78,11.59-15.98Zm244.63,139.42l11.59-15.98-15.44-3.8,3.85,19.78Zm125.85,51.1l11.59-15.98-15.44-3.8,3.85,19.78Zm-17.33-4.26l11.59-15.98-15.44-3.8,3.85,19.78Zm12.8-16.98l11.59-15.98-15.44-3.8,3.85,19.78Zm-30.14,12.72l11.59-15.98-15.44-3.8,3.85,19.78Zm12.8-16.98l11.59-15.98-15.44-3.8,3.85,19.78Zm34.66,8.53l11.59-15.98-15.44-3.8,3.85,19.78Zm33.45,9.53l-15.44-3.8,3.85,19.78,11.59-15.98Zm-16.12-5.26l11.59-15.98-15.44-3.8,3.85,19.78Zm-12.8,16.98l11.59-15.98-15.44-3.8,3.85,19.78Zm-56.52-34.04l11.59-15.98-15.44-3.8,3.85,19.78Zm-69.32-17.06l11.59-15.98-15.44-3.8,3.85,19.78Zm4.53,21.25l11.59-15.98-15.44-3.8,3.85,19.78Zm158.52-20.1l-15.44-3.8,3.85,19.78,11.59-15.98Zm-145.72,3.11l11.59-15.98-15.44-3.8,3.85,19.78ZM224.83,305.51l-15.44-3.8,3.85,19.78,11.59-15.98Zm370.47,190.52l11.59-15.98-15.44-3.8,3.85,19.78Zm69.32,17.06l11.59-15.98-15.44-3.8,3.85,19.78Zm-34.66-8.53l11.59-15.98-15.44-3.8,3.85,19.78Zm30.14-12.72l11.59-15.98-15.44-3.8,3.85,19.78Zm-12.8,16.98l11.59-15.98-15.44-3.8,3.85,19.78Zm-4.53-21.25l11.59-15.98-15.44-3.8,3.85,19.78Zm132.13-66.85l-15.44-3.8,3.85,19.78,11.59-15.98Zm-116.79-8.6l-15.44-3.8,3.85,19.78,11.59-15.98Zm34.66,8.53l-15.44-3.8,3.85,19.78,11.59-15.98Zm-39.19-29.77l-15.44-3.8,3.85,19.78,11.59-15.98Zm34.66,8.53l-15.44-3.8,3.85,19.78,11.59-15.98Zm-12.8,16.98l-15.44-3.8,3.85,19.78,11.59-15.98Zm-4.53-21.25l-15.44-3.8,3.85,19.78,11.59-15.98Zm-47.47,8.45l-15.44-3.8,3.85,19.78,11.59-15.98Zm17.33,4.26l-15.44-3.8,3.85,19.78,11.59-15.98Zm-21.86-25.51l-15.44-3.8,3.85,19.78,11.59-15.98Zm17.33,4.26l-15.44-3.8,3.85,19.78,11.59-15.98Zm73.85,38.3l-15.44-3.8,3.85,19.78,11.59-15.98Zm-132.13,66.85l11.59-15.98-15.44-3.8,3.85,19.78Zm179.6-75.31l-15.44-3.8,3.85,19.78,11.59-15.98Zm4.53,21.25l-15.44-3.8,3.85,19.78,11.59-15.98Zm-155.98-38.38l-15.44-3.8,3.85,19.78,11.59-15.98Zm134.12,12.87l-15.44-3.8,3.85,19.78,11.59-15.98Zm-17.33-4.26l-15.44-3.8,3.85,19.78,11.59-15.98Zm-17.33-4.26l-15.44-3.8,3.85,19.78,11.59-15.98Zm73.85,38.3l-15.44-3.8,3.85,19.78,11.59-15.98Zm-51.99-12.79l-15.44-3.8,3.85,19.78,11.59-15.98Zm17.33,4.26l-15.44-3.8,3.85,19.78,11.59-15.98Zm-245.18-1.23l11.59-15.98-15.44-3.8,3.85,19.78Zm30.14-12.72l11.59-15.98-15.44-3.8,3.85,19.78Zm-12.8,16.98l11.59-15.98-15.44-3.8,3.85,19.78Zm-4.53-21.25l11.59-15.98-15.44-3.8,3.85,19.78Zm34.66,8.53l11.59-15.98-15.44-3.8,3.85,19.78Zm-12.8,16.98l11.59-15.98-15.44-3.8,3.85,19.78Zm34.66,8.53l11.59-15.98-15.44-3.8,3.85,19.78Zm12.8-16.98l11.59-15.98-15.44-3.8,3.85,19.78Zm-17.33-4.26l11.59-15.98-15.44-3.8,3.85,19.78Zm-12.8,16.98l11.59-15.98-15.44-3.8,3.85,19.78Zm-73.85-38.3l11.59-15.98-15.44-3.8,3.85,19.78Zm-30.14,12.72l11.59-15.98-15.44-3.8,3.85,19.78Zm-4.53-21.25l11.59-15.98-15.44-3.8,3.85,19.78Zm51.99,12.79l11.59-15.98-15.44-3.8,3.85,19.78Zm-82.13-.08l11.59-15.98-15.44-3.8,3.85,19.78Zm12.8-16.98l11.59-15.98-15.44-3.8,3.85,19.78Zm4.53,21.25l11.59-15.98-15.44-3.8,3.85,19.78Zm51.99,12.79l11.59-15.98-15.44-3.8,3.85,19.78Zm103.99,25.59l11.59-15.98-15.44-3.8,3.85,19.78Zm-121.32-29.85l11.59-15.98-15.44-3.8,3.85,19.78Zm-4.53-21.25l11.59-15.98-15.44-3.8,3.85,19.78Zm302.17,337.37l3.85,19.78,11.59-15.98-15.44-3.8Zm-42.2-273.4l11.59-15.98-15.44-3.8,3.85,19.78Zm-12.8,16.98l11.59-15.98-15.44-3.8,3.85,19.78Zm-21.86-25.51l11.59-15.98-15.44-3.8,3.85,19.78Zm17.33,4.26l11.59-15.98-15.44-3.8,3.85,19.78Zm-12.8,16.98l11.59-15.98-15.44-3.8,3.85,19.78Zm34.66,8.53l11.59-15.98-15.44-3.8,3.85,19.78Zm-316.49-98l11.59-15.98-15.44-3.8,3.85,19.78Zm-188.11-105.38l-15.44-3.8,3.85,19.78,11.59-15.98Zm546.32,174.69l-15.44-3.8,3.85,19.78,11.59-15.98Zm-28.92,11.72l11.59-15.98-15.44-3.8,3.85,19.78Zm-103.99-25.59l11.59-15.98-15.44-3.8,3.85,19.78Zm-34.66-8.53l11.59-15.98-15.44-3.8,3.85,19.78Zm73.85,38.3l11.59-15.98-15.44-3.8,3.85,19.78Zm-56.52-34.04l11.59-15.98-15.44-3.8,3.85,19.78Zm-12.8,16.98l11.59-15.98-15.44-3.8,3.85,19.78Zm17.33,4.26l11.59-15.98-15.44-3.8,3.85,19.78Zm34.66,8.53l11.59-15.98-15.44-3.8,3.85,19.78Zm12.8-16.98l11.59-15.98-15.44-3.8,3.85,19.78Zm-17.33-4.26l11.59-15.98-15.44-3.8,3.85,19.78Zm-12.8,16.98l11.59-15.98-15.44-3.8,3.85,19.78Zm103.99,25.59l11.59-15.98-15.44-3.8,3.85,19.78ZM170.3,351.19l11.59-15.98-15.44-3.8,3.85,19.78Zm-4.53-21.25l11.59-15.98-15.44-3.8,3.85,19.78Zm-12.8,16.98l11.59-15.98-15.44-3.8,3.85,19.78Zm-17.33-4.26l11.59-15.98-15.44-3.8,3.85,19.78Zm-4.53-21.25l11.59-15.98-15.44-3.8,3.85,19.78Zm86.66,21.32l11.59-15.98-15.44-3.8,3.85,19.78Zm-17.33-4.26l11.59-15.98-15.44-3.8,3.85,19.78Zm-17.33-4.26l11.59-15.98-15.44-3.8,3.85,19.78Zm21.86,25.51l11.59-15.98-15.44-3.8,3.85,19.78Zm-17.33-4.26l11.59-15.98-15.44-3.8,3.85,19.78Zm-39.19-29.77l11.59-15.98-15.44-3.8,3.85,19.78Zm37.2-49.95l-15.44-3.8,3.85,19.78,11.59-15.98Zm-67.34,62.66l11.59-15.98-15.44-3.8,3.85,19.78Zm84.67-58.4l-15.44-3.8,3.85,19.78,11.59-15.98Zm4.53,21.25l-15.44-3.8,3.85,19.78,11.59-15.98Zm-34.66-8.53l-15.44-3.8,3.85,19.78,11.59-15.98Zm17.33,4.26l-15.44-3.8,3.85,19.78,11.59-15.98Zm-21.86-25.51l-15.44-3.8,3.85,19.78,11.59-15.98Zm-45.58,8.92l3.85,19.78,11.59-15.98-15.44-3.8Zm28.25-13.18l-15.44-3.8,3.85,19.78,11.59-15.98Zm244.63,139.42l11.59-15.98-15.44-3.8,3.85,19.78Zm-240.1-118.18l-15.44-3.8,3.85,19.78,11.59-15.98Zm153.44,96.85l11.59-15.98-15.44-3.8,3.85,19.78Zm34.66,8.53l11.59-15.98-15.44-3.8,3.85,19.78Zm-21.86-25.51l11.59-15.98-15.44-3.8,3.85,19.78Zm34.66,8.53l11.59-15.98-15.44-3.8,3.85,19.78Zm-30.14,12.72l11.59-15.98-15.44-3.8,3.85,19.78Zm-103.99-25.59l11.59-15.98-15.44-3.8,3.85,19.78Zm168.79,21.4l11.59-15.98-15.44-3.8,3.85,19.78Zm-12.8,16.98l11.59-15.98-15.44-3.8,3.85,19.78Zm-4.53-21.25l11.59-15.98-15.44-3.8,3.85,19.78Zm-12.8,16.98l11.59-15.98-15.44-3.8,3.85,19.78Zm-21.86-25.51l11.59-15.98-15.44-3.8,3.85,19.78Zm-86.66-21.32l11.59-15.98-15.44-3.8,3.85,19.78Zm-12.8,16.98l11.59-15.98-15.44-3.8,3.85,19.78Zm64.8-4.19l11.59-15.98-15.44-3.8,3.85,19.78Zm-47.47,8.45l11.59-15.98-15.44-3.8,3.85,19.78Zm-21.86-25.51l11.59-15.98-15.44-3.8,3.85,19.78Zm56.52,34.04l11.59-15.98-15.44-3.8,3.85,19.78Zm-21.86-25.51l11.59-15.98-15.44-3.8,3.85,19.78Zm17.33,4.26l11.59-15.98-15.44-3.8,3.85,19.78Zm-12.8,16.98l11.59-15.98-15.44-3.8,3.85,19.78ZM130.34,240.7l11.59-15.98-15.44-3.8,3.85,19.78Zm501.39,124.67l-15.44-3.8,3.85,19.78,11.59-15.98Zm30.14-12.72l-15.44-3.8,3.85,19.78,11.59-15.98Zm-17.33-4.26l-15.44-3.8,3.85,19.78,11.59-15.98Zm4.53,21.25l-15.44-3.8,3.85,19.78,11.59-15.98Zm-34.66-8.53l-15.44-3.8,3.85,19.78,11.59-15.98Zm12.8-16.98l-15.44-3.8,3.85,19.78,11.59-15.98Zm-17.33-4.26l-15.44-3.8,3.85,19.78,11.59-15.98Zm-220.78-34.19l-15.44-3.8,3.85,19.78,11.59-15.98Zm190.64,46.91l-15.44-3.8,3.85,19.78,11.59-15.98Zm17.33,4.26l-15.44-3.8,3.85,19.78,11.59-15.98Zm151.45,17.13l-15.44-3.8,3.85,19.78,11.59-15.98Zm-17.33-4.26l-15.44-3.8,3.85,19.78,11.59-15.98Zm-12.8,16.98l-15.44-3.8,3.85,19.78,11.59-15.98Zm-4.53-21.25l-15.44-3.8,3.85,19.78,11.59-15.98Zm-138.65-34.11l-15.44-3.8,3.85,19.78,11.59-15.98Zm160.51,59.63l-15.44-3.8,3.85,19.78,11.59-15.98Zm-56.52-34.04l-15.44-3.8,3.85,19.78,11.59-15.98Zm21.86,25.51l-15.44-3.8,3.85,19.78,11.59-15.98Zm-34.66-8.53l-15.44-3.8,3.85,19.78,11.59-15.98Zm17.33,4.26l-15.44-3.8,3.85,19.78,11.59-15.98Zm12.8-16.98l-15.44-3.8,3.85,19.78,11.59-15.98Zm-190.64-46.91l-15.44-3.8,3.85,19.78,11.59-15.98Zm56.52,34.04l-15.44-3.8,3.85,19.78,11.59-15.98Zm-125.85-51.1l-15.44-3.8,3.85,19.78,11.59-15.98Zm4.53,21.25l-15.44-3.8,3.85,19.78,11.59-15.98Zm17.33,4.26l-15.44-3.8,3.85,19.78,11.59-15.98Zm17.33,4.26l-15.44-3.8,3.85,19.78,11.59-15.98Zm-4.53-21.25l-15.44-3.8,3.85,19.78,11.59-15.98Zm-47.47,8.45l-15.44-3.8,3.85,19.78,11.59-15.98Zm-21.86-25.51l-15.44-3.8,3.85,19.78,11.59-15.98Zm4.53,21.25l-15.44-3.8,3.85,19.78,11.59-15.98Zm12.8-16.98l-15.44-3.8,3.85,19.78,11.59-15.98Zm34.66,8.53l-15.44-3.8,3.85,19.78,11.59-15.98Zm86.66,21.32l-15.44-3.8,3.85,19.78,11.59-15.98Zm-12.8,16.98l-15.44-3.8,3.85,19.78,11.59-15.98Zm17.33,4.26l-15.44-3.8,3.85,19.78,11.59-15.98Zm12.8-16.98l-15.44-3.8,3.85,19.78,11.59-15.98Zm-34.66-8.53l-15.44-3.8,3.85,19.78,11.59-15.98Zm-30.14,12.72l-15.44-3.8,3.85,19.78,11.59-15.98Zm-4.53-21.25l-15.44-3.8,3.85,19.78,11.59-15.98Zm264.5,85.21l-15.44-3.8,3.85,19.78,11.59-15.98Zm-242.64-59.7l-15.44-3.8,3.85,19.78,11.59-15.98Zm82.13,.08l-15.44-3.8,3.85,19.78,11.59-15.98Zm46.48,211.46l11.59-15.98-15.44-3.8,3.85,19.78Zm-56.52-34.04l11.59-15.98-15.44-3.8,3.85,19.78Zm17.33,4.26l11.59-15.98-15.44-3.8,3.85,19.78Zm-30.14,12.72l11.59-15.98-15.44-3.8,3.85,19.78Zm-17.33-4.26l11.59-15.98-15.44-3.8,3.85,19.78Zm12.8-16.98l11.59-15.98-15.44-3.8,3.85,19.78Zm69.32,17.06l11.59-15.98-15.44-3.8,3.85,19.78Zm-12.8,16.98l11.59-15.98-15.44-3.8,3.85,19.78Zm-4.53-21.25l11.59-15.98-15.44-3.8,3.85,19.78Zm-12.8,16.98l11.59-15.98-15.44-3.8,3.85,19.78Zm-17.33-4.26l11.59-15.98-15.44-3.8,3.85,19.78Zm-39.19-29.77l11.59-15.98-15.44-3.8,3.85,19.78Zm-51.99-12.79l11.59-15.98-15.44-3.8,3.85,19.78Zm-12.8,16.98l11.59-15.98-15.44-3.8,3.85,19.78Zm-17.33-4.26l11.59-15.98-15.44-3.8,3.85,19.78Zm12.8-16.98l11.59-15.98-15.44-3.8,3.85,19.78Zm21.86,25.51l11.59-15.98-15.44-3.8,3.85,19.78Zm30.14-12.72l11.59-15.98-15.44-3.8,3.85,19.78Zm4.53,21.25l11.59-15.98-15.44-3.8,3.85,19.78Zm-21.86-25.51l11.59-15.98-15.44-3.8,3.85,19.78Zm4.53,21.25l11.59-15.98-15.44-3.8,3.85,19.78Zm151.45,17.13l11.59-15.98-15.44-3.8,3.85,19.78Zm123.08-109.34l-15.44-3.8,3.85,19.78,11.59-15.98Zm-8.28,38.23l-15.44-3.8,3.85,19.78,11.59-15.98Zm-8.28,38.23l-15.44-3.8,3.85,19.78,11.59-15.98Zm-8.28,38.23l-15.44-3.8,3.85,19.78,11.59-15.98Zm-24.4,32.96l11.59-15.98-15.44-3.8,3.85,19.78Zm44.7-168.89l-15.44-3.8,3.85,19.78,11.59-15.98Zm12.8-16.98l-15.44-3.8,3.85,19.78,11.59-15.98Zm-30.14,12.72l-15.44-3.8,3.85,19.78,11.59-15.98Zm12.8-16.98l-15.44-3.8,3.85,19.78,11.59-15.98Zm-44.7,168.89l11.59-15.98-15.44-3.8,3.85,19.78Zm27.37-173.16l-15.44-3.8,3.85,19.78,11.59-15.98Zm-79.36,160.37l11.59-15.98-15.44-3.8,3.85,19.78Zm39.19,29.77l11.59-15.98-15.44-3.8,3.85,19.78Zm-51.99-12.79l11.59-15.98-15.44-3.8,3.85,19.78Zm-17.33-4.26l11.59-15.98-15.44-3.8,3.85,19.78Zm-4.53-21.25l11.59-15.98-15.44-3.8,3.85,19.78Zm69.32,17.06l11.59-15.98-15.44-3.8,3.85,19.78Zm-12.8,16.98l11.59-15.98-15.44-3.8,3.85,19.78Zm-17.33-4.26l11.59-15.98-15.44-3.8,3.85,19.78Zm12.8-16.98l11.59-15.98-15.44-3.8,3.85,19.78Zm-403.15-119.33l11.59-15.98-15.44-3.8,3.85,19.78Zm34.66,8.53l11.59-15.98-15.44-3.8,3.85,19.78Zm-4.53-21.25l11.59-15.98-15.44-3.8,3.85,19.78Zm17.33,4.26l11.59-15.98-15.44-3.8,3.85,19.78Zm-30.14,12.72l11.59-15.98-15.44-3.8,3.85,19.78Zm-108.51-46.83l11.59-15.98-15.44-3.8,3.85,19.78Zm143.18,55.36l11.59-15.98-15.44-3.8,3.85,19.78Zm220.78,34.19l11.59-15.98-15.44-3.8,3.85,19.78Zm-190.64-46.91l11.59-15.98-15.44-3.8,3.85,19.78Zm-12.8,16.98l11.59-15.98-15.44-3.8,3.85,19.78Zm-4.53-21.25l11.59-15.98-15.44-3.8,3.85,19.78Zm-134.12-12.87l11.59-15.98-15.44-3.8,3.85,19.78Zm12.8-16.98l11.59-15.98-15.44-3.8,3.85,19.78Zm4.53,21.25l11.59-15.98-15.44-3.8,3.85,19.78Zm47.47-8.45l11.59-15.98-15.44-3.8,3.85,19.78Zm-69.32-17.06l11.59-15.98-15.44-3.8,3.85,19.78Zm-12.8,16.98l11.59-15.98-15.44-3.8,3.85,19.78Zm173.31,42.64l11.59-15.98-15.44-3.8,3.85,19.78Zm-108.51-46.83l11.59-15.98-15.44-3.8,3.85,19.78Zm-17.33-4.26l11.59-15.98-15.44-3.8,3.85,19.78Zm21.86,25.51l11.59-15.98-15.44-3.8,3.85,19.78Zm-17.33-4.26l11.59-15.98-15.44-3.8,3.85,19.78Zm47.47-8.45l11.59-15.98-15.44-3.8,3.85,19.78Zm195.17,68.15l11.59-15.98-15.44-3.8,3.85,19.78Zm12.8-16.98l11.59-15.98-15.44-3.8,3.85,19.78Zm-17.33-4.26l11.59-15.98-15.44-3.8,3.85,19.78Zm21.86,25.51l11.59-15.98-15.44-3.8,3.85,19.78Zm-125.85-51.1l11.59-15.98-15.44-3.8,3.85,19.78Zm86.66,21.32l11.59-15.98-15.44-3.8,3.85,19.78Zm51.99,12.79l11.59-15.98-15.44-3.8,3.85,19.78Zm17.33,4.26l11.59-15.98-15.44-3.8,3.85,19.78Zm4.53,21.25l11.59-15.98-15.44-3.8,3.85,19.78Zm-17.33-4.26l11.59-15.98-15.44-3.8,3.85,19.78Zm-51.99-12.79l11.59-15.98-15.44-3.8,3.85,19.78Zm-73.85-38.3l11.59-15.98-15.44-3.8,3.85,19.78Zm56.52,34.04l11.59-15.98-15.44-3.8,3.85,19.78Zm-51.99-12.79l11.59-15.98-15.44-3.8,3.85,19.78Zm-17.33-4.26l11.59-15.98-15.44-3.8,3.85,19.78Zm30.14-12.72l11.59-15.98-15.44-3.8,3.85,19.78Zm21.86,25.51l11.59-15.98-15.44-3.8,3.85,19.78Zm-17.33-4.26l11.59-15.98-15.44-3.8,3.85,19.78Zm30.14-12.72l11.59-15.98-15.44-3.8,3.85,19.78Zm-17.33-4.26l11.59-15.98-15.44-3.8,3.85,19.78Zm-154.22-177.57l-15.44-3.8,3.85,19.78,11.59-15.98Zm-47.47,8.45l-15.44-3.8,3.85,19.78,11.59-15.98Zm-53.75,126.4l11.59-15.98-15.44-3.8,3.85,19.78Zm71.09-122.14l-15.44-3.8,3.85,19.78,11.59-15.98Zm12.8-16.98l-15.44-3.8,3.85,19.78,11.59-15.98Zm-34.66-8.53l-15.44-3.8,3.85,19.78,11.59-15.98Zm39.19,29.77l-15.44-3.8,3.85,19.78,11.59-15.98Zm-73.85-38.3l-15.44-3.8,3.85,19.78,11.59-15.98Zm4.53,21.25l-15.44-3.8,3.85,19.78,11.59-15.98Zm17.33,4.26l-15.44-3.8,3.85,19.78,11.59-15.98Zm-4.53-21.25l-15.44-3.8,3.85,19.78,11.59-15.98Zm73.85,38.3l-15.44-3.8,3.85,19.78,11.59-15.98Zm82.13,.08l-15.44-3.8,3.85,19.78,11.59-15.98Zm-34.66-8.53l-15.44-3.8,3.85,19.78,11.59-15.98Zm21.86,25.51l-15.44-3.8,3.85,19.78,11.59-15.98Zm-4.53-21.25l-15.44-3.8,3.85,19.78,11.59-15.98Zm-30.14,12.72l-15.44-3.8,3.85,19.78,11.59-15.98Zm17.33,4.26l-15.44-3.8,3.85,19.78,11.59-15.98Zm-155.98-38.38l-15.44-3.8,3.85,19.78,11.59-15.98Zm116.79,8.6l-15.44-3.8,3.85,19.78,11.59-15.98Zm17.33,4.26l-15.44-3.8,3.85,19.78,11.59-15.98Zm-12.8,16.98l-15.44-3.8,3.85,19.78,11.59-15.98Zm-56.52-34.04l-15.44-3.8,3.85,19.78,11.59-15.98Zm-105.75,113.61l11.59-15.98-15.44-3.8,3.85,19.78Zm-12.8,16.98l11.59-15.98-15.44-3.8,3.85,19.78Zm-4.53-21.25l11.59-15.98-15.44-3.8,3.85,19.78Zm-17.33-4.26l11.59-15.98-15.44-3.8,3.85,19.78Zm71.09-122.14l-15.44-3.8,3.85,19.78,11.59-15.98Zm-14.57,156.18l11.59-15.98-15.44-3.8,3.85,19.78Zm-69.32-17.06l11.59-15.98-15.44-3.8,3.85,19.78Zm51.99,12.79l11.59-15.98-15.44-3.8,3.85,19.78Zm30.14-12.72l11.59-15.98-15.44-3.8,3.85,19.78Zm-17.33-4.26l11.59-15.98-15.44-3.8,3.85,19.78Zm-47.47,8.45l11.59-15.98-15.44-3.8,3.85,19.78Zm36.42-130.67l-15.44-3.8,3.85,19.78,11.59-15.98Zm12.8-16.98l-15.44-3.8,3.85,19.78,11.59-15.98Zm-17.33-4.26l-15.44-3.8,3.85,19.78,11.59-15.98Zm-53.75,126.4l11.59-15.98-15.44-3.8,3.85,19.78Zm75.61-100.89l-15.44-3.8,3.85,19.78,11.59-15.98Zm-62.91,4.65l3.85,19.78,11.59-15.98-15.44-3.8Zm-8.28,38.23l3.85,19.78,11.59-15.98-15.44-3.8Zm36.52-51.41l-15.44-3.8,3.85,19.78,11.59-15.98Zm314.73,237.2l11.59-15.98-15.44-3.8,3.85,19.78Zm-59.93,187.88l-15.44-3.8,3.85,19.78,11.59-15.98Zm-9.97-586.29l-15.44-3.8,3.85,19.78,11.59-15.98Zm125.85,51.1l-15.44-3.8,3.85,19.78,11.59-15.98Zm-121.32-29.85l-15.44-3.8,3.85,19.78,11.59-15.98Zm17.33,4.26l-15.44-3.8,3.85,19.78,11.59-15.98Zm-4.53-21.25l-15.44-3.8,3.85,19.78,11.59-15.98Zm-34.66-8.53l-15.44-3.8,3.85,19.78,11.59-15.98Zm498.86,183.14l-15.44-3.8,3.85,19.78,11.59-15.98ZM356.63,76.22l-15.44-3.8,3.85,19.78,11.59-15.98Zm4.53,21.25l-15.44-3.8,3.85,19.78,11.59-15.98Zm64.8-4.19l-15.44-3.8,3.85,19.78,11.59-15.98Zm73.85,38.3l-15.44-3.8,3.85,19.78,11.59-15.98Zm-17.33-4.26l-15.44-3.8,3.85,19.78,11.59-15.98Zm12.8-16.98l-15.44-3.8,3.85,19.78,11.59-15.98Zm17.33,4.26l-15.44-3.8,3.85,19.78,11.59-15.98Zm-173.31-42.64l-15.44-3.8,3.85,19.78,11.59-15.98Zm138.65,34.11l-15.44-3.8,3.85,19.78,11.59-15.98Zm-12.8,16.98l-15.44-3.8,3.85,19.78,11.59-15.98Zm-21.86-25.51l-15.44-3.8,3.85,19.78,11.59-15.98Zm4.53,21.25l-15.44-3.8,3.85,19.78,11.59-15.98Zm-17.33-4.26l-15.44-3.8,3.85,19.78,11.59-15.98Zm30.14-12.72l-15.44-3.8,3.85,19.78,11.59-15.98Zm-82.13-.08l-15.44-3.8,3.85,19.78,11.59-15.98ZM235.31,46.37l-15.44-3.8,3.85,19.78,11.59-15.98Zm-30.14,12.72l-15.44-3.8,3.85,19.78,11.59-15.98Zm12.8-16.98l-15.44-3.8,3.85,19.78,11.59-15.98Zm4.53,21.25l-15.44-3.8,3.85,19.78,11.59-15.98Zm-34.66-8.53l-15.44-3.8,3.85,19.78,11.59-15.98Zm138.65,34.11l-15.44-3.8,3.85,19.78,11.59-15.98ZM153.18,46.29l-15.44-3.8,3.85,19.78,11.59-15.98Zm30.14-12.72l-15.44-3.8,3.85,19.78,11.59-15.98Zm-17.33-4.26l-15.44-3.8,3.85,19.78,11.59-15.98Zm4.53,21.25l-15.44-3.8,3.85,19.78,11.59-15.98Zm30.14-12.72l-15.44-3.8,3.85,19.78,11.59-15.98Zm91.18,42.57l-15.44-3.8,3.85,19.78,11.59-15.98Zm-4.53-21.25l-15.44-3.8,3.85,19.78,11.59-15.98Zm17.33,4.26l-15.44-3.8,3.85,19.78,11.59-15.98Zm17.33,4.26l-15.44-3.8,3.85,19.78,11.59-15.98Zm-82.13-.08l-15.44-3.8,3.85,19.78,11.59-15.98Zm69.32,17.06l-15.44-3.8,3.85,19.78,11.59-15.98Zm-56.52-34.04l-15.44-3.8,3.85,19.78,11.59-15.98Zm4.53,21.25l-15.44-3.8,3.85,19.78,11.59-15.98Zm12.8-16.98l-15.44-3.8,3.85,19.78,11.59-15.98Zm4.53,21.25l-15.44-3.8,3.85,19.78,11.59-15.98Zm324.77,59.78l-15.44-3.8,3.85,19.78,11.59-15.98Zm173.31,42.64l-15.44-3.8,3.85,19.78,11.59-15.98Zm-12.8,16.98l-15.44-3.8,3.85,19.78,11.59-15.98Zm-4.53-21.25l-15.44-3.8,3.85,19.78,11.59-15.98Zm39.19,29.77l-15.44-3.8,3.85,19.78,11.59-15.98Zm-4.53-21.25l-15.44-3.8,3.85,19.78,11.59-15.98Zm-12.8,16.98l-15.44-3.8,3.85,19.78,11.59-15.98Zm-247.16-80.95l-15.44-3.8,3.85,19.78,11.59-15.98Zm195.17,68.15l-15.44-3.8,3.85,19.78,11.59-15.98Zm17.33,4.26l-15.44-3.8,3.85,19.78,11.59-15.98Zm-4.53-21.25l-15.44-3.8,3.85,19.78,11.59-15.98Zm73.85,38.3l-15.44-3.8,3.85,19.78,11.59-15.98Zm47.47-8.45l-15.44-3.8,3.85,19.78,11.59-15.98Zm-12.8,16.98l-15.44-3.8,3.85,19.78,11.59-15.98Zm17.33,4.26l-15.44-3.8,3.85,19.78,11.59-15.98Zm12.8-16.98l-15.44-3.8,3.85,19.78,11.59-15.98Zm4.53,21.25l-15.44-3.8,3.85,19.78,11.59-15.98Zm-73.85-38.3l-15.44-3.8,3.85,19.78,11.59-15.98Zm17.33,4.26l-15.44-3.8,3.85,19.78,11.59-15.98Zm-116.79-8.6l-15.44-3.8,3.85,19.78,11.59-15.98Zm134.12,12.87l-15.44-3.8,3.85,19.78,11.59-15.98Zm-12.8,16.98l-15.44-3.8,3.85,19.78,11.59-15.98Zm-108.51-46.83l-15.44-3.8,3.85,19.78,11.59-15.98Zm-138.65-34.11l-15.44-3.8,3.85,19.78,11.59-15.98Zm34.66,8.53l-15.44-3.8,3.85,19.78,11.59-15.98Zm-47.47,8.45l-15.44-3.8,3.85,19.78,11.59-15.98ZM148.65,25.05l-15.44-3.8,3.85,19.78,11.59-15.98Zm455.14,132.12l-15.44-3.8,3.85,19.78,11.59-15.98Zm-17.33-4.26l-15.44-3.8,3.85,19.78,11.59-15.98Zm-51.99-12.79l-15.44-3.8,3.85,19.78,11.59-15.98Zm12.8-16.98l-15.44-3.8,3.85,19.78,11.59-15.98Zm4.53,21.25l-15.44-3.8,3.85,19.78,11.59-15.98Zm12.8-16.98l-15.44-3.8,3.85,19.78,11.59-15.98Zm103.99,25.59l-15.44-3.8,3.85,19.78,11.59-15.98Zm34.66,8.53l-15.44-3.8,3.85,19.78,11.59-15.98Zm-82.13-.08l-15.44-3.8,3.85,19.78,11.59-15.98Zm64.8-4.19l-15.44-3.8,3.85,19.78,11.59-15.98Zm4.53,21.25l-15.44-3.8,3.85,19.78,11.59-15.98Zm-17.33-4.26l-15.44-3.8,3.85,19.78,11.59-15.98Zm-39.19-29.77l-15.44-3.8,3.85,19.78,11.59-15.98Zm4.53,21.25l-15.44-3.8,3.85,19.78,11.59-15.98Zm17.33,4.26l-15.44-3.8,3.85,19.78,11.59-15.98Zm-4.53-21.25l-15.44-3.8,3.85,19.78,11.59-15.98Zm-307.44-55.51l-15.44-3.8,3.85,19.78,11.59-15.98Zm71.45,559.86l11.59-15.98-15.44-3.8,3.85,19.78Zm-4.53-21.25l11.59-15.98-15.44-3.8,3.85,19.78Zm-12.8,16.98l11.59-15.98-15.44-3.8,3.85,19.78Zm-17.33-4.26l11.59-15.98-15.44-3.8,3.85,19.78Zm12.8-16.98l11.59-15.98-15.44-3.8,3.85,19.78Zm51.99,12.79l11.59-15.98-15.44-3.8,3.85,19.78Zm-69.32-17.06l11.59-15.98-15.44-3.8,3.85,19.78Zm73.85,38.3l11.59-15.98-15.44-3.8,3.85,19.78Zm-17.33-4.26l11.59-15.98-15.44-3.8,3.85,19.78Zm-4.53-21.25l11.59-15.98-15.44-3.8,3.85,19.78Zm-86.66-21.32l11.59-15.98-15.44-3.8,3.85,19.78Zm-34.66-8.53l11.59-15.98-15.44-3.8,3.85,19.78Zm4.53,21.25l11.59-15.98-15.44-3.8,3.85,19.78Zm-17.33-4.26l11.59-15.98-15.44-3.8,3.85,19.78Zm-4.53-21.25l11.59-15.98-15.44-3.8,3.85,19.78Zm34.66,8.53l11.59-15.98-15.44-3.8,3.85,19.78Zm-47.47,8.45l11.59-15.98-15.44-3.8,3.85,19.78Zm82.13,.08l11.59-15.98-15.44-3.8,3.85,19.78Zm4.53,21.25l11.59-15.98-15.44-3.8,3.85,19.78Zm-17.33-4.26l11.59-15.98-15.44-3.8,3.85,19.78Zm116.79,8.6l11.59-15.98-15.44-3.8,3.85,19.78Zm-134.12-12.87l11.59-15.98-15.44-3.8,3.85,19.78Zm272.77,46.98l11.59-15.98-15.44-3.8,3.85,19.78Zm-47.47,8.45l11.59-15.98-15.44-3.8,3.85,19.78Zm30.14-12.72l11.59-15.98-15.44-3.8,3.85,19.78Zm-12.8,16.98l11.59-15.98-15.44-3.8,3.85,19.78Zm-4.53-21.25l11.59-15.98-15.44-3.8,3.85,19.78Zm21.86,25.51l11.59-15.98-15.44-3.8,3.85,19.78Zm47.47-8.45l11.59-15.98-15.44-3.8,3.85,19.78Zm-30.14,12.72l11.59-15.98-15.44-3.8,3.85,19.78Zm17.33,4.26l11.59-15.98-15.44-3.8,3.85,19.78Zm-4.53-21.25l11.59-15.98-15.44-3.8,3.85,19.78Zm-121.32-29.85l11.59-15.98-15.44-3.8,3.85,19.78Zm-30.14,12.72l11.59-15.98-15.44-3.8,3.85,19.78Zm82.13,.08l11.59-15.98-15.44-3.8,3.85,19.78Zm-64.8,4.19l11.59-15.98-15.44-3.8,3.85,19.78Zm-4.53-21.25l11.59-15.98-15.44-3.8,3.85,19.78Zm21.86,25.51l11.59-15.98-15.44-3.8,3.85,19.78Zm30.14-12.72l11.59-15.98-15.44-3.8,3.85,19.78Zm4.53,21.25l11.59-15.98-15.44-3.8,3.85,19.78Zm-17.33-4.26l11.59-15.98-15.44-3.8,3.85,19.78Zm-4.53-21.25l11.59-15.98-15.44-3.8,3.85,19.78Zm-290.1-51.25l11.59-15.98-15.44-3.8,3.85,19.78ZM29.36,458.74l3.85,19.78,11.59-15.98-15.44-3.8Zm4.63,100.5l11.59-15.98-15.44-3.8,3.85,19.78Zm12.8-16.98l11.59-15.98-15.44-3.8,3.85,19.78Zm39.19,29.77l11.59-15.98-15.44-3.8,3.85,19.78ZM21.08,496.97l3.85,19.78,11.59-15.98-15.44-3.8Zm8.38,41.03l11.59-15.98-15.44-3.8,3.85,19.78Zm39.19,29.77l11.59-15.98-15.44-3.8,3.85,19.78Zm12.8-16.98l11.59-15.98-15.44-3.8,3.85,19.78Zm-30.14,12.72l11.59-15.98-15.44-3.8,3.85,19.78Zm12.8-16.98l11.59-15.98-15.44-3.8,3.85,19.78Zm-47.47,8.45l11.59-15.98-15.44-3.8,3.85,19.78ZM79.02,229.37l3.85,19.78,11.59-15.98-15.44-3.8Zm16.55-76.46l3.85,19.78,11.59-15.98-15.44-3.8Zm-8.28,38.23l3.85,19.78,11.59-15.98-15.44-3.8Zm-49.66,229.37l3.85,19.78,11.59-15.98-15.44-3.8ZM103.85,114.68l3.85,19.78,11.59-15.98-15.44-3.8Zm8.28-38.23l3.85,19.78,11.59-15.98-15.44-3.8ZM54.19,344.05l3.85,19.78,11.59-15.98-15.44-3.8Zm-8.28,38.23l3.85,19.78,11.59-15.98-15.44-3.8Zm24.83-114.68l3.85,19.78,11.59-15.98-15.44-3.8Zm-8.28,38.23l3.85,19.78,11.59-15.98-15.44-3.8Zm36.32,249.23l11.59-15.98-15.44-3.8,3.85,19.78Zm108.51,46.83l11.59-15.98-15.44-3.8,3.85,19.78Zm12.8-16.98l11.59-15.98-15.44-3.8,3.85,19.78Zm-30.14,12.72l11.59-15.98-15.44-3.8,3.85,19.78Zm12.8-16.98l11.59-15.98-15.44-3.8,3.85,19.78ZM120.41,38.23l3.85,19.78,11.59-15.98-15.44-3.8Zm65.03,538.14l11.59-15.98-15.44-3.8,3.85,19.78Zm69.32,17.06l11.59-15.98-15.44-3.8,3.85,19.78Zm-17.33-4.26l11.59-15.98-15.44-3.8,3.85,19.78Zm21.86,25.51l11.59-15.98-15.44-3.8,3.85,19.78Zm-17.33-4.26l11.59-15.98-15.44-3.8,3.85,19.78Zm-108.51-46.83l11.59-15.98-15.44-3.8,3.85,19.78Zm138.65,34.11l11.59-15.98-15.44-3.8,3.85,19.78Zm-155.98-38.38l11.59-15.98-15.44-3.8,3.85,19.78Zm56.52,34.04l11.59-15.98-15.44-3.8,3.85,19.78Zm-69.32-17.06l11.59-15.98-15.44-3.8,3.85,19.78Zm17.33,4.26l11.59-15.98-15.44-3.8,3.85,19.78Zm34.66,8.53l11.59-15.98-15.44-3.8,3.85,19.78Zm12.8-16.98l11.59-15.98-15.44-3.8,3.85,19.78Zm-17.33-4.26l11.59-15.98-15.44-3.8,3.85,19.78Zm-12.8,16.98l11.59-15.98-15.44-3.8,3.85,19.78ZM600.47,134.92l11.59-15.98-15.44-3.8,3.85,19.78ZM132.53,19.78l11.59-15.98-15.44-3.8,3.85,19.78Zm-1.21,1l-15.44-3.8,3.85,19.78,11.59-15.98Zm18.54,3.26l11.59-15.98-15.44-3.8,3.85,19.78Zm51.99,12.79l11.59-15.98-15.44-3.8,3.85,19.78Zm-34.66-8.53l11.59-15.98-15.44-3.8,3.85,19.78Zm17.33,4.26l11.59-15.98-15.44-3.8,3.85,19.78ZM98.21,173.69l-15.44-3.8,3.85,19.78,11.59-15.98Zm8.28-38.23l-15.44-3.8,3.85,19.78,11.59-15.98Zm286.01-51.72l11.59-15.98-15.44-3.8,3.85,19.78ZM123.04,59.01l-15.44-3.8,3.85,19.78,11.59-15.98Zm96.14-17.91l11.59-15.98-15.44-3.8,3.85,19.78Zm103.99,25.59l11.59-15.98-15.44-3.8,3.85,19.78Zm-17.33-4.26l11.59-15.98-15.44-3.8,3.85,19.78Zm34.66,8.53l11.59-15.98-15.44-3.8,3.85,19.78ZM89.93,211.92l-15.44-3.8,3.85,19.78,11.59-15.98ZM357.84,75.22l11.59-15.98-15.44-3.8,3.85,19.78Zm17.33,4.26l11.59-15.98-15.44-3.8,3.85,19.78ZM236.52,45.37l11.59-15.98-15.44-3.8,3.85,19.78Zm17.33,4.26l11.59-15.98-15.44-3.8,3.85,19.78Zm17.33,4.26l11.59-15.98-15.44-3.8,3.85,19.78Zm17.33,4.26l11.59-15.98-15.44-3.8,3.85,19.78ZM114.77,97.24l-15.44-3.8,3.85,19.78,11.59-15.98Zm-42.8,492.78l-15.44-3.8,3.85,19.78,11.59-15.98Zm-19.97-25.05l3.85,19.78,11.59-15.98-15.44-3.8Zm2.64,20.78l-15.44-3.8,3.85,19.78,11.59-15.98Zm-19.97-25.05l3.85,19.78,11.59-15.98-15.44-3.8Zm2.64,20.78l-15.44-3.8,3.85,19.78,11.59-15.98Zm32.03-12.25l3.85,19.78,11.59-15.98-15.44-3.8Zm34.66,8.53l3.85,19.78,11.59-15.98-15.44-3.8Zm-86.66-21.32l3.85,19.78,11.59-15.98-15.44-3.8Zm69.32,17.06l3.85,19.78,11.59-15.98-15.44-3.8Zm2.64,20.78l-15.44-3.8,3.85,19.78,11.59-15.98Zm17.33,4.26l-15.44-3.8,3.85,19.78,11.59-15.98Zm-58.08-195.48l-15.44-3.8,3.85,19.78,11.59-15.98Zm16.55-76.46l-15.44-3.8,3.85,19.78,11.59-15.98Zm-8.28,38.23l-15.44-3.8,3.85,19.78,11.59-15.98Zm16.55-76.46l-15.44-3.8,3.85,19.78,11.59-15.98ZM15.44,555.97l-15.44-3.8,3.85,19.78,11.59-15.98Zm24.83-114.68l-15.44-3.8,3.85,19.78,11.59-15.98Zm-16.55,76.46l-15.44-3.8,3.85,19.78,11.59-15.98Zm-3.75,59.47l-15.44-3.8,3.85,19.78,11.59-15.98Zm12.03-97.7l-15.44-3.8,3.85,19.78,11.59-15.98Zm49.66-229.37l-15.44-3.8,3.85,19.78,11.59-15.98Zm778.79-51.27l11.59-15.98-15.44-3.8,3.85,19.78Zm17.33,4.26l11.59-15.98-15.44-3.8,3.85,19.78Zm4.53,21.25l11.59-15.98-15.44-3.8,3.85,19.78Zm-8.28,38.23l11.59-15.98-15.44-3.8,3.85,19.78Zm-8.28,38.23l11.59-15.98-15.44-3.8,3.85,19.78Zm-22.64-106.23l11.59-15.98-15.44-3.8,3.85,19.78Zm-34.66-8.53l11.59-15.98-15.44-3.8,3.85,19.78Zm-17.33-4.26l11.59-15.98-15.44-3.8,3.85,19.78Zm66.35,157.25l11.59-15.98-15.44-3.8,3.85,19.78Zm-31.69-148.72l11.59-15.98-15.44-3.8,3.85,19.78Zm23.41,186.95l11.59-15.98-15.44-3.8,3.85,19.78Zm-49.66,229.37l11.59-15.98-15.44-3.8,3.85,19.78Zm8.28-38.23l11.59-15.98-15.44-3.8,3.85,19.78Zm-16.55,76.46l11.59-15.98-15.44-3.8,3.85,19.78Zm-16.55,76.46l11.59-15.98-15.44-3.8,3.85,19.78Zm8.28-38.23l11.59-15.98-15.44-3.8,3.85,19.78Zm33.11-152.91l11.59-15.98-15.44-3.8,3.85,19.78Zm16.55-76.46l11.59-15.98-15.44-3.8,3.85,19.78Zm8.28-38.23l11.59-15.98-15.44-3.8,3.85,19.78Zm-16.55,76.46l11.59-15.98-15.44-3.8,3.85,19.78Zm-50.58-314.43l11.59-15.98-15.44-3.8,3.85,19.78ZM409.83,88.01l11.59-15.98-15.44-3.8,3.85,19.78Zm173.31,42.64l11.59-15.98-15.44-3.8,3.85,19.78Zm-86.66-21.32l11.59-15.98-15.44-3.8,3.85,19.78Zm34.66,8.53l11.59-15.98-15.44-3.8,3.85,19.78Zm34.66,8.53l11.59-15.98-15.44-3.8,3.85,19.78Zm-17.33-4.26l11.59-15.98-15.44-3.8,3.85,19.78Zm-34.66-8.53l11.59-15.98-15.44-3.8,3.85,19.78Zm-34.66-8.53l11.59-15.98-15.44-3.8,3.85,19.78Zm-34.66-8.53l11.59-15.98-15.44-3.8,3.85,19.78Zm-17.33-4.26l11.59-15.98-15.44-3.8,3.85,19.78Zm34.66,8.53l11.59-15.98-15.44-3.8,3.85,19.78Zm242.64,59.7l11.59-15.98-15.44-3.8,3.85,19.78Zm51.99,12.79l11.59-15.98-15.44-3.8,3.85,19.78Zm-34.66-8.53l11.59-15.98-15.44-3.8,3.85,19.78Zm17.33,4.26l11.59-15.98-15.44-3.8,3.85,19.78Zm-98.55,539.46l11.59-15.98-15.44-3.8,3.85,19.78Zm46.55-552.25l11.59-15.98-15.44-3.8,3.85,19.78Zm-51.99-12.79l11.59-15.98-15.44-3.8,3.85,19.78Zm34.66,8.53l11.59-15.98-15.44-3.8,3.85,19.78Zm-51.99-12.79l11.59-15.98-15.44-3.8,3.85,19.78Zm34.66,8.53l11.59-15.98-15.44-3.8,3.85,19.78ZM158.62,611.34l-15.44-3.8,3.85,19.78,11.59-15.98Zm467.94,115.14l-15.44-3.8,3.85,19.78,11.59-15.98Zm17.33,4.26l-15.44-3.8,3.85,19.78,11.59-15.98Zm-54.63-33.57l3.85,19.78,11.59-15.98-15.44-3.8Zm17.33,4.26l3.85,19.78,11.59-15.98-15.44-3.8Zm-196.63-150.34l11.59-15.98-15.44-3.8,3.85,19.78Zm213.96,154.6l3.85,19.78,11.59-15.98-15.44-3.8Zm34.66,8.53l3.85,19.78,11.59-15.98-15.44-3.8Zm19.97,25.05l-15.44-3.8,3.85,19.78,11.59-15.98Zm-17.33-4.26l-15.44-3.8,3.85,19.78,11.59-15.98Zm-19.97-25.05l3.85,19.78,11.59-15.98-15.44-3.8Zm-101.35-4.8l-15.44-3.8,3.85,19.78,11.59-15.98Zm-34.66-8.53l-15.44-3.8,3.85,19.78,11.59-15.98Zm170.68,21.86l3.85,19.78,11.59-15.98-15.44-3.8Zm-173.31-42.64l3.85,19.78,11.59-15.98-15.44-3.8Zm34.66,8.53l3.85,19.78,11.59-15.98-15.44-3.8Zm-14.69,16.52l-15.44-3.8,3.85,19.78,11.59-15.98Zm32.03-12.25l3.85,19.78,11.59-15.98-15.44-3.8Zm17.33,4.26l3.85,19.78,11.59-15.98-15.44-3.8Zm2.64,20.78l-15.44-3.8,3.85,19.78,11.59-15.98Zm-17.33-4.26l-15.44-3.8,3.85,19.78,11.59-15.98Zm34.66,8.53l-15.44-3.8,3.85,19.78,11.59-15.98Zm-71.96-37.84l3.85,19.78,11.59-15.98-15.44-3.8Zm294.94-148.89l-15.44-3.8,3.85,19.78,11.59-15.98Zm-33.11,152.91l-15.44-3.8,3.85,19.78,11.59-15.98Zm16.55-76.46l-15.44-3.8,3.85,19.78,11.59-15.98Zm24.83-114.68l-15.44-3.8,3.85,19.78,11.59-15.98Zm-127.26,250.54l-15.44-3.8,3.85,19.78,11.59-15.98Zm110.71-174.08l-15.44-3.8,3.85,19.78,11.59-15.98Zm24.83-114.68l-15.44-3.8,3.85,19.78,11.59-15.98Zm24.83-114.68l-15.44-3.8,3.85,19.78,11.59-15.98Zm-8.28,38.23l-15.44-3.8,3.85,19.78,11.59-15.98Zm-8.28,38.23l-15.44-3.8,3.85,19.78,11.59-15.98Zm-49.66,229.37l-15.44-3.8,3.85,19.78,11.59-15.98Zm-59.49,106.16l-15.44-3.8,3.85,19.78,11.59-15.98Zm-19.97-25.05l3.85,19.78,11.59-15.98-15.44-3.8Zm62.91-4.65l-15.44-3.8,3.85,19.78,11.59-15.98Zm-80.24,.39l3.85,19.78,11.59-15.98-15.44-3.8Zm19.97,25.05l-15.44-3.8,3.85,19.78,11.59-15.98Zm51.99,12.79l-15.44-3.8,3.85,19.78,11.59-15.98Zm-19.97-25.05l3.85,19.78,11.59-15.98-15.44-3.8Zm2.64,20.78l-15.44-3.8,3.85,19.78,11.59-15.98Zm-19.97-25.05l3.85,19.78,11.59-15.98-15.44-3.8Zm-240-38.92l-15.44-3.8,3.85,19.78,11.59-15.98Zm-225.31-55.44l-15.44-3.8,3.85,19.78,11.59-15.98Zm-19.97-25.05l3.85,19.78,11.59-15.98-15.44-3.8Zm-34.66-8.53l3.85,19.78,11.59-15.98-15.44-3.8Zm86.66,21.32l3.85,19.78,11.59-15.98-15.44-3.8Zm-69.32-17.06l3.85,19.78,11.59-15.98-15.44-3.8Zm19.97,25.05l-15.44-3.8,3.85,19.78,11.59-15.98Zm14.69-16.52l3.85,19.78,11.59-15.98-15.44-3.8Zm37.3,29.31l-15.44-3.8,3.85,19.78,11.59-15.98Zm-19.97-25.05l3.85,19.78,11.59-15.98-15.44-3.8Zm2.64,20.78l-15.44-3.8,3.85,19.78,11.59-15.98Zm-51.99-12.79l-15.44-3.8,3.85,19.78,11.59-15.98ZM864.54,301.85l-15.44-3.8,3.85,19.78,11.59-15.98ZM138.65,586.29l3.85,19.78,11.59-15.98-15.44-3.8Zm71.96,37.84l-15.44-3.8,3.85,19.78,11.59-15.98Zm-89.29-42.1l3.85,19.78,11.59-15.98-15.44-3.8Zm34.66,8.53l3.85,19.78,11.59-15.98-15.44-3.8Zm-14.69,16.52l-15.44-3.8,3.85,19.78,11.59-15.98Zm34.66,8.53l-15.44-3.8,3.85,19.78,11.59-15.98Zm14.69-16.52l3.85,19.78,11.59-15.98-15.44-3.8Zm2.64,20.78l-15.44-3.8,3.85,19.78,11.59-15.98Zm-19.97-25.05l3.85,19.78,11.59-15.98-15.44-3.8Zm155.98,38.38l3.85,19.78,11.59-15.98-15.44-3.8Zm106.62,46.37l-15.44-3.8,3.85,19.78,11.59-15.98Zm-2.64-20.78l3.85,19.78,11.59-15.98-15.44-3.8Zm-17.33-4.26l3.85,19.78,11.59-15.98-15.44-3.8Zm37.3,29.31l-15.44-3.8,3.85,19.78,11.59-15.98Zm-34.66-8.53l-15.44-3.8,3.85,19.78,11.59-15.98Zm49.36-7.99l3.85,19.78,11.59-15.98-15.44-3.8Zm-343.99-64.51l-15.44-3.8,3.85,19.78,11.59-15.98Zm274.66,47.45l3.85,19.78,11.59-15.98-15.44-3.8Zm51.99,12.79l3.85,19.78,11.59-15.98-15.44-3.8Zm19.97,25.05l-15.44-3.8,3.85,19.78,11.59-15.98Zm14.69-16.52l3.85,19.78,11.59-15.98-15.44-3.8Zm-136.01-13.33l-15.44-3.8,3.85,19.78,11.59-15.98Zm32.03-12.25l3.85,19.78,11.59-15.98-15.44-3.8Zm-49.36,7.99l-15.44-3.8,3.85,19.78,11.59-15.98Zm-19.97-25.05l3.85,19.78,11.59-15.98-15.44-3.8Zm2.64,20.78l-15.44-3.8,3.85,19.78,11.59-15.98Zm69.32,17.06l-15.44-3.8,3.85,19.78,11.59-15.98Zm-37.3-29.31l3.85,19.78,11.59-15.98-15.44-3.8Zm17.33,4.26l3.85,19.78,11.59-15.98-15.44-3.8Zm2.64,20.78l-15.44-3.8,3.85,19.78,11.59-15.98Zm242.64,59.7l-15.44-3.8,3.85,19.78,11.59-15.98Zm81.99-463l-15.44-3.8,3.85,19.78,11.59-15.98Zm12.8-16.98l-15.44-3.8,3.85,19.78,11.59-15.98Zm4.53,21.25l-15.44-3.8,3.85,19.78,11.59-15.98Zm-21.86-25.51l-15.44-3.8,3.85,19.78,11.59-15.98Zm39.19,29.77l-15.44-3.8,3.85,19.78,11.59-15.98Zm-4.53-21.25l-15.44-3.8,3.85,19.78,11.59-15.98Zm-69.32-17.06l-15.44-3.8,3.85,19.78,11.59-15.98Zm21.86,25.51l-15.44-3.8,3.85,19.78,11.59-15.98Zm-17.33-4.26l-15.44-3.8,3.85,19.78,11.59-15.98Zm12.8-16.98l-15.44-3.8,3.85,19.78,11.59-15.98Zm103.99,25.59l-15.44-3.8,3.85,19.78,11.59-15.98Zm51.99,12.79l-15.44-3.8,3.85,19.78,11.59-15.98Zm-34.66-8.53l-15.44-3.8,3.85,19.78,11.59-15.98Zm21.86,25.51l-15.44-3.8,3.85,19.78,11.59-15.98Zm-34.66-8.53l-15.44-3.8,3.85,19.78,11.59-15.98Zm30.14-12.72l-15.44-3.8,3.85,19.78,11.59-15.98Zm-47.47,8.45l-15.44-3.8,3.85,19.78,11.59-15.98Zm-17.33-4.26l-15.44-3.8,3.85,19.78,11.59-15.98Zm12.8-16.98l-15.44-3.8,3.85,19.78,11.59-15.98Zm-17.33-4.26l-15.44-3.8,3.85,19.78,11.59-15.98Zm-99.46-4.34l-15.44-3.8,3.85,19.78,11.59-15.98Zm155.98,38.38l-15.44-3.8,3.85,19.78,11.59-15.98Zm-259.97-63.97l-15.44-3.8,3.85,19.78,11.59-15.98Zm-34.66-8.53l-15.44-3.8,3.85,19.78,11.59-15.98Zm12.8-16.98l-15.44-3.8,3.85,19.78,11.59-15.98Zm17.33,4.26l-15.44-3.8,3.85,19.78,11.59-15.98Zm-12.8,16.98l-15.44-3.8,3.85,19.78,11.59-15.98Zm-21.86-25.51l-15.44-3.8,3.85,19.78,11.59-15.98Zm-34.66-8.53l-15.44-3.8,3.85,19.78,11.59-15.98Zm4.53,21.25l-15.44-3.8,3.85,19.78,11.59-15.98Zm168.79,21.4l-15.44-3.8,3.85,19.78,11.59-15.98Zm-155.98-38.38l-15.44-3.8,3.85,19.78,11.59-15.98Zm4.53,21.25l-15.44-3.8,3.85,19.78,11.59-15.98Zm116.79,8.6l-15.44-3.8,3.85,19.78,11.59-15.98Zm4.53,21.25l-15.44-3.8,3.85,19.78,11.59-15.98Zm-17.33-4.26l-15.44-3.8,3.85,19.78,11.59-15.98Zm30.14-12.72l-15.44-3.8,3.85,19.78,11.59-15.98Zm4.53,21.25l-15.44-3.8,3.85,19.78,11.59-15.98Zm-56.52-34.04l-15.44-3.8,3.85,19.78,11.59-15.98Zm17.33,4.26l-15.44-3.8,3.85,19.78,11.59-15.98Zm-34.66-8.53l-15.44-3.8,3.85,19.78,11.59-15.98Zm4.53,21.25l-15.44-3.8,3.85,19.78,11.59-15.98Zm17.33,4.26l-15.44-3.8,3.85,19.78,11.59-15.98Zm74.42,419.66l11.59-15.98-15.44-3.8,3.85,19.78Zm-17.33-4.26l11.59-15.98-15.44-3.8,3.85,19.78Zm-12.8,16.98l11.59-15.98-15.44-3.8,3.85,19.78Zm-4.53-21.25l11.59-15.98-15.44-3.8,3.85,19.78Zm-12.8,16.98l11.59-15.98-15.44-3.8,3.85,19.78Zm34.66,8.53l11.59-15.98-15.44-3.8,3.85,19.78Zm17.33,4.26l11.59-15.98-15.44-3.8,3.85,19.78Zm30.14-12.72l11.59-15.98-15.44-3.8,3.85,19.78Zm-17.33-4.26l11.59-15.98-15.44-3.8,3.85,19.78ZM448.59,199.51l-15.44-3.8,3.85,19.78,11.59-15.98Zm143.75,436.72l11.59-15.98-15.44-3.8,3.85,19.78Zm73.85,38.3l11.59-15.98-15.44-3.8,3.85,19.78Zm-138.65-34.11l11.59-15.98-15.44-3.8,3.85,19.78Zm-4.53-21.25l11.59-15.98-15.44-3.8,3.85,19.78Zm17.33,4.26l11.59-15.98-15.44-3.8,3.85,19.78Zm-34.66-8.53l11.59-15.98-15.44-3.8,3.85,19.78Zm4.53,21.25l11.59-15.98-15.44-3.8,3.85,19.78Zm64.8-4.19l11.59-15.98-15.44-3.8,3.85,19.78Zm-30.14,12.72l11.59-15.98-15.44-3.8,3.85,19.78Zm34.66,8.53l11.59-15.98-15.44-3.8,3.85,19.78Zm-17.33-4.26l11.59-15.98-15.44-3.8,3.85,19.78Zm-4.53-21.25l11.59-15.98-15.44-3.8,3.85,19.78Zm206.76,52.17l-15.44-3.8,3.85,19.78,11.59-15.98Zm16.55-76.46l-15.44-3.8,3.85,19.78,11.59-15.98Zm41.39-191.14l-15.44-3.8,3.85,19.78,11.59-15.98Zm-8.28,38.23l-15.44-3.8,3.85,19.78,11.59-15.98Zm-16.55,76.46l-15.44-3.8,3.85,19.78,11.59-15.98Zm-8.28,38.23l-15.44-3.8,3.85,19.78,11.59-15.98Zm16.55-76.46l-15.44-3.8,3.85,19.78,11.59-15.98Zm24.83-114.68l-15.44-3.8,3.85,19.78,11.59-15.98Zm-177.27,317.47l11.59-15.98-15.44-3.8,3.85,19.78Zm193.82-393.92l-15.44-3.8,3.85,19.78,11.59-15.98Zm-8.28,38.23l-15.44-3.8,3.85,19.78,11.59-15.98Zm-9.05-42.49l-15.44-3.8,3.85,19.78,11.59-15.98Zm-116.22,372.75l11.59-15.98-15.44-3.8,3.85,19.78Zm-12.8,16.98l11.59-15.98-15.44-3.8,3.85,19.78Zm-4.53-21.25l11.59-15.98-15.44-3.8,3.85,19.78Zm21.86,25.51l11.59-15.98-15.44-3.8,3.85,19.78Zm17.33,4.26l11.59-15.98-15.44-3.8,3.85,19.78Zm-51.99-12.79l11.59-15.98-15.44-3.8,3.85,19.78Zm47.47-8.45l11.59-15.98-15.44-3.8,3.85,19.78Zm17.33,4.26l11.59-15.98-15.44-3.8,3.85,19.78Zm24.4-32.96l-15.44-3.8,3.85,19.78,11.59-15.98ZM79.8,310.09l3.85,19.78,11.59-15.98-15.44-3.8Zm87.53,181.3l11.59-15.98-15.44-3.8,3.85,19.78Zm4.53,21.25l11.59-15.98-15.44-3.8,3.85,19.78Zm51.99,12.79l11.59-15.98-15.44-3.8,3.85,19.78ZM54.97,424.77l3.85,19.78,11.59-15.98-15.44-3.8Zm129.69,70.88l11.59-15.98-15.44-3.8,3.85,19.78Zm-34.66-8.53l11.59-15.98-15.44-3.8,3.85,19.78Zm39.19,29.77l11.59-15.98-15.44-3.8,3.85,19.78Zm17.33,4.26l11.59-15.98-15.44-3.8,3.85,19.78Zm12.8-16.98l11.59-15.98-15.44-3.8,3.85,19.78Zm-17.33-4.26l11.59-15.98-15.44-3.8,3.85,19.78Zm-64.8,4.19l11.59-15.98-15.44-3.8,3.85,19.78Zm-56.52-34.04l11.59-15.98-15.44-3.8,3.85,19.78Zm-12.8,16.98l11.59-15.98-15.44-3.8,3.85,19.78Zm-17.33-4.26l11.59-15.98-15.44-3.8,3.85,19.78Zm12.8-16.98l11.59-15.98-15.44-3.8,3.85,19.78Zm21.86,25.51l11.59-15.98-15.44-3.8,3.85,19.78Zm34.66,8.53l11.59-15.98-15.44-3.8,3.85,19.78Zm-21.86-25.51l11.59-15.98-15.44-3.8,3.85,19.78Zm34.66,8.53l11.59-15.98-15.44-3.8,3.85,19.78Zm-17.33-4.26l11.59-15.98-15.44-3.8,3.85,19.78Zm-12.8,16.98l11.59-15.98-15.44-3.8,3.85,19.78Zm51.99,12.79l11.59-15.98-15.44-3.8,3.85,19.78Zm168.79,21.4l11.59-15.98-15.44-3.8,3.85,19.78Zm-86.66-21.32l11.59-15.98-15.44-3.8,3.85,19.78Zm125.85,51.1l11.59-15.98-15.44-3.8,3.85,19.78Zm-21.86-25.51l11.59-15.98-15.44-3.8,3.85,19.78Zm-12.8,16.98l11.59-15.98-15.44-3.8,3.85,19.78Zm17.33,4.26l11.59-15.98-15.44-3.8,3.85,19.78Zm30.14-12.72l11.59-15.98-15.44-3.8,3.85,19.78Zm21.86,25.51l11.59-15.98-15.44-3.8,3.85,19.78Zm-4.53-21.25l11.59-15.98-15.44-3.8,3.85,19.78Zm-12.8,16.98l11.59-15.98-15.44-3.8,3.85,19.78Zm-21.86-25.51l11.59-15.98-15.44-3.8,3.85,19.78Zm-103.99-25.59l11.59-15.98-15.44-3.8,3.85,19.78Zm56.52,34.04l11.59-15.98-15.44-3.8,3.85,19.78Zm-51.99-12.79l11.59-15.98-15.44-3.8,3.85,19.78Zm-17.33-4.26l11.59-15.98-15.44-3.8,3.85,19.78Zm30.14-12.72l11.59-15.98-15.44-3.8,3.85,19.78Zm21.86,25.51l11.59-15.98-15.44-3.8,3.85,19.78Zm12.8-16.98l11.59-15.98-15.44-3.8,3.85,19.78Zm-30.14,12.72l11.59-15.98-15.44-3.8,3.85,19.78Zm12.8-16.98l11.59-15.98-15.44-3.8,3.85,19.78ZM153.95,127.01l-15.44-3.8,3.85,19.78,11.59-15.98Zm155.98,38.38l-15.44-3.8,3.85,19.78,11.59-15.98Zm12.8-16.98l-15.44-3.8,3.85,19.78,11.59-15.98Zm-17.33-4.26l-15.44-3.8,3.85,19.78,11.59-15.98Zm21.86,25.51l-15.44-3.8,3.85,19.78,11.59-15.98Zm12.8-16.98l-15.44-3.8,3.85,19.78,11.59-15.98Zm-51.99-12.79l-15.44-3.8,3.85,19.78,11.59-15.98Zm-12.8,16.98l-15.44-3.8,3.85,19.78,11.59-15.98Zm-4.53-21.25l-15.44-3.8,3.85,19.78,11.59-15.98Zm21.86,25.51l-15.44-3.8,3.85,19.78,11.59-15.98Zm51.99,12.79l-15.44-3.8,3.85,19.78,11.59-15.98Zm47.47-8.45l-15.44-3.8,3.85,19.78,11.59-15.98Zm-34.66-8.53l-15.44-3.8,3.85,19.78,11.59-15.98Zm51.99,12.79l-15.44-3.8,3.85,19.78,11.59-15.98Zm-12.8,16.98l-15.44-3.8,3.85,19.78,11.59-15.98Zm30.14-12.72l-15.44-3.8,3.85,19.78,11.59-15.98Zm4.53,21.25l-15.44-3.8,3.85,19.78,11.59-15.98Zm-17.33-4.26l-15.44-3.8,3.85,19.78,11.59-15.98Zm-51.99-12.79l-15.44-3.8,3.85,19.78,11.59-15.98Zm-103.99-25.59l-15.44-3.8,3.85,19.78,11.59-15.98Zm116.79,8.6l-15.44-3.8,3.85,19.78,11.59-15.98Zm4.53,21.25l-15.44-3.8,3.85,19.78,11.59-15.98Zm-125.85-51.1l-15.44-3.8,3.85,19.78,11.59-15.98Zm-140.51,25.82l3.85,19.78,11.59-15.98-15.44-3.8Zm8.28-38.23l3.85,19.78,11.59-15.98-15.44-3.8Zm-16.55,76.46l3.85,19.78,11.59-15.98-15.44-3.8Zm62.13-85.37l-15.44-3.8,3.85,19.78,11.59-15.98Zm277.3,68.23l-15.44-3.8,3.85,19.78,11.59-15.98ZM63.24,386.55l3.85,19.78,11.59-15.98-15.44-3.8Zm429.63,245.34l11.59-15.98-15.44-3.8,3.85,19.78ZM96.35,233.63l3.85,19.78,11.59-15.98-15.44-3.8Zm-24.83,114.68l3.85,19.78,11.59-15.98-15.44-3.8Zm16.55-76.46l3.85,19.78,11.59-15.98-15.44-3.8Zm61.35-166.1l-15.44-3.8,3.85,19.78,11.59-15.98Zm73.85,38.3l-15.44-3.8,3.85,19.78,11.59-15.98Zm12.8-16.98l-15.44-3.8,3.85,19.78,11.59-15.98Zm-17.33-4.26l-15.44-3.8,3.85,19.78,11.59-15.98Zm21.86,25.51l-15.44-3.8,3.85,19.78,11.59-15.98Zm-39.19-29.77l-15.44-3.8,3.85,19.78,11.59-15.98Zm-12.8,16.98l-15.44-3.8,3.85,19.78,11.59-15.98Zm-4.53-21.25l-15.44-3.8,3.85,19.78,11.59-15.98Zm21.86,25.51l-15.44-3.8,3.85,19.78,11.59-15.98Zm-34.66-8.53l-15.44-3.8,3.85,19.78,11.59-15.98Zm671.39,145.06l-15.44-3.8,3.85,19.78,11.59-15.98Zm-234.36-97.93l-15.44-3.8,3.85,19.78,11.59-15.98Zm-34.66-8.53l-15.44-3.8,3.85,19.78,11.59-15.98Zm21.86,25.51l-15.44-3.8,3.85,19.78,11.59-15.98Zm-4.53-21.25l-15.44-3.8,3.85,19.78,11.59-15.98Zm-30.14,12.72l-15.44-3.8,3.85,19.78,11.59-15.98Zm17.33,4.26l-15.44-3.8,3.85,19.78,11.59-15.98Zm-51.99-12.79l-15.44-3.8,3.85,19.78,11.59-15.98Zm30.14-12.72l-15.44-3.8,3.85,19.78,11.59-15.98Zm-34.66-8.53l-15.44-3.8,3.85,19.78,11.59-15.98Zm21.86,25.51l-15.44-3.8,3.85,19.78,11.59-15.98Zm-4.53-21.25l-15.44-3.8,3.85,19.78,11.59-15.98Zm138.65,34.11l-15.44-3.8,3.85,19.78,11.59-15.98Zm-12.8,16.98l-15.44-3.8,3.85,19.78,11.59-15.98Zm-4.53-21.25l-15.44-3.8,3.85,19.78,11.59-15.98Zm34.66,8.53l-15.44-3.8,3.85,19.78,11.59-15.98Zm-12.8,16.98l-15.44-3.8,3.85,19.78,11.59-15.98Zm-51.99-12.79l-15.44-3.8,3.85,19.78,11.59-15.98Zm-4.53-21.25l-15.44-3.8,3.85,19.78,11.59-15.98Zm-12.8,16.98l-15.44-3.8,3.85,19.78,11.59-15.98Zm34.66,8.53l-15.44-3.8,3.85,19.78,11.59-15.98Zm-4.53-21.25l-15.44-3.8,3.85,19.78,11.59-15.98Zm-134.12-12.87l-15.44-3.8,3.85,19.78,11.59-15.98Zm-121.32-29.85l-15.44-3.8,3.85,19.78,11.59-15.98Zm12.8-16.98l-15.44-3.8,3.85,19.78,11.59-15.98Zm4.53,21.25l-15.44-3.8,3.85,19.78,11.59-15.98Zm12.8-16.98l-15.44-3.8,3.85,19.78,11.59-15.98Zm-34.66-8.53l-15.44-3.8,3.85,19.78,11.59-15.98Zm-47.47,8.45l-15.44-3.8,3.85,19.78,11.59-15.98Zm12.8-16.98l-15.44-3.8,3.85,19.78,11.59-15.98Zm4.53,21.25l-15.44-3.8,3.85,19.78,11.59-15.98Zm69.32,17.06l-15.44-3.8,3.85,19.78,11.59-15.98Zm-51.99-12.79l-15.44-3.8,3.85,19.78,11.59-15.98Zm99.46,4.34l-15.44-3.8,3.85,19.78,11.59-15.98Zm21.86,25.51l-15.44-3.8,3.85,19.78,11.59-15.98Zm-56.52-34.04l-15.44-3.8,3.85,19.78,11.59-15.98Zm51.99,12.79l-15.44-3.8,3.85,19.78,11.59-15.98Zm17.33,4.26l-15.44-3.8,3.85,19.78,11.59-15.98Zm-30.14,12.72l-15.44-3.8,3.85,19.78,11.59-15.98Zm-21.86-25.51l-15.44-3.8,3.85,19.78,11.59-15.98Zm-12.8,16.98l-15.44-3.8,3.85,19.78,11.59-15.98Zm17.33,4.26l-15.44-3.8,3.85,19.78,11.59-15.98Zm242.64,59.7l-15.44-3.8,3.85,19.78,11.59-15.98ZM365.68,118.71l-15.44-3.8,3.85,19.78,11.59-15.98Zm428.11,467.72l-15.44-3.8,3.85,19.78,11.59-15.98Zm8.28-38.23l-15.44-3.8,3.85,19.78,11.59-15.98Zm-16.55,76.46l-15.44-3.8,3.85,19.78,11.59-15.98Zm-16.55,76.46l-15.44-3.8,3.85,19.78,11.59-15.98Zm-24.4,32.96l11.59-15.98-15.44-3.8,3.85,19.78Zm32.67-71.19l-15.44-3.8,3.85,19.78,11.59-15.98Zm33.11-152.91l-15.44-3.8,3.85,19.78,11.59-15.98Zm16.55-76.46l-15.44-3.8,3.85,19.78,11.59-15.98Zm8.28-38.23l-15.44-3.8,3.85,19.78,11.59-15.98Zm-16.55,76.46l-15.44-3.8,3.85,19.78,11.59-15.98Zm-126.05,249.54l11.59-15.98-15.44-3.8,3.85,19.78Zm-17.33-4.26l11.59-15.98-15.44-3.8,3.85,19.78Zm168.21-359.96l-15.44-3.8,3.85,19.78,11.59-15.98Zm-155.41,342.98l11.59-15.98-15.44-3.8,3.85,19.78Zm-17.33-4.26l11.59-15.98-15.44-3.8,3.85,19.78Zm-12.8,16.98l11.59-15.98-15.44-3.8,3.85,19.78Zm51.99,12.79l11.59-15.98-15.44-3.8,3.85,19.78Zm17.33,4.26l11.59-15.98-15.44-3.8,3.85,19.78Zm-21.86-25.51l11.59-15.98-15.44-3.8,3.85,19.78Zm17.33,4.26l11.59-15.98-15.44-3.8,3.85,19.78Zm17.33,4.26l11.59-15.98-15.44-3.8,3.85,19.78Zm93.59-478.98l-15.44-3.8,3.85,19.78,11.59-15.98Zm-64.8,4.19l-15.44-3.8,3.85,19.78,11.59-15.98Zm-4.53-21.25l-15.44-3.8,3.85,19.78,11.59-15.98Zm17.33,4.26l-15.44-3.8,3.85,19.78,11.59-15.98Zm4.53,21.25l-15.44-3.8,3.85,19.78,11.59-15.98Zm-34.66-8.53l-15.44-3.8,3.85,19.78,11.59-15.98Zm-34.66-8.53l-15.44-3.8,3.85,19.78,11.59-15.98Zm30.14-12.72l-15.44-3.8,3.85,19.78,11.59-15.98Zm-17.33-4.26l-15.44-3.8,3.85,19.78,11.59-15.98Zm69.32,17.06l-15.44-3.8,3.85,19.78,11.59-15.98Zm-64.8,4.19l-15.44-3.8,3.85,19.78,11.59-15.98Zm116.79,8.6l-15.44-3.8,3.85,19.78,11.59-15.98Zm.78,80.72l-15.44-3.8,3.85,19.78,11.59-15.98Zm3.75-59.47l-15.44-3.8,3.85,19.78,11.59-15.98Zm-51.99-12.79l-15.44-3.8,3.85,19.78,11.59-15.98Zm56.52,34.04l-15.44-3.8,3.85,19.78,11.59-15.98Zm8.28-38.23l-15.44-3.8,3.85,19.78,11.59-15.98Zm-30.14,12.72l-15.44-3.8,3.85,19.78,11.59-15.98Zm-17.33-4.26l-15.44-3.8,3.85,19.78,11.59-15.98Zm-4.53-21.25l-15.44-3.8,3.85,19.78,11.59-15.98Zm-103.99-25.59l-15.44-3.8,3.85,19.78,11.59-15.98ZM37.73,499.77l11.59-15.98-15.44-3.8,3.85,19.78Zm207.97,51.17l11.59-15.98-15.44-3.8,3.85,19.78Zm-30.14,12.72l11.59-15.98-15.44-3.8,3.85,19.78Zm17.33,4.26l11.59-15.98-15.44-3.8,3.85,19.78Zm30.14-12.72l11.59-15.98-15.44-3.8,3.85,19.78Zm-34.66-8.53l11.59-15.98-15.44-3.8,3.85,19.78Zm-103.99-25.59l11.59-15.98-15.44-3.8,3.85,19.78Zm173.31,42.64l11.59-15.98-15.44-3.8,3.85,19.78Zm-30.14,12.72l11.59-15.98-15.44-3.8,3.85,19.78Zm17.33,4.26l11.59-15.98-15.44-3.8,3.85,19.78Zm-4.53-21.25l11.59-15.98-15.44-3.8,3.85,19.78Zm-69.32-17.06l11.59-15.98-15.44-3.8,3.85,19.78Zm-51.99-12.79l11.59-15.98-15.44-3.8,3.85,19.78Zm-12.8,16.98l11.59-15.98-15.44-3.8,3.85,19.78Zm17.33,4.26l11.59-15.98-15.44-3.8,3.85,19.78Zm138.65,34.11l11.59-15.98-15.44-3.8,3.85,19.78Zm-173.31-42.64l11.59-15.98-15.44-3.8,3.85,19.78Zm12.8-16.98l11.59-15.98-15.44-3.8,3.85,19.78Zm51.99,12.79l11.59-15.98-15.44-3.8,3.85,19.78Zm-17.33-4.26l11.59-15.98-15.44-3.8,3.85,19.78Zm21.86,25.51l11.59-15.98-15.44-3.8,3.85,19.78Zm-17.33-4.26l11.59-15.98-15.44-3.8,3.85,19.78Zm69.32,17.06l11.59-15.98-15.44-3.8,3.85,19.78Zm186.12,25.66l11.59-15.98-15.44-3.8,3.85,19.78Zm4.53,21.25l11.59-15.98-15.44-3.8,3.85,19.78Zm-39.19-29.77l11.59-15.98-15.44-3.8,3.85,19.78Zm17.33,4.26l11.59-15.98-15.44-3.8,3.85,19.78Zm-12.8,16.98l11.59-15.98-15.44-3.8,3.85,19.78Zm17.33,4.26l11.59-15.98-15.44-3.8,3.85,19.78Zm30.14-12.72l11.59-15.98-15.44-3.8,3.85,19.78Zm17.33,4.26l11.59-15.98-15.44-3.8,3.85,19.78Zm4.53,21.25l11.59-15.98-15.44-3.8,3.85,19.78Zm-17.33-4.26l11.59-15.98-15.44-3.8,3.85,19.78Zm-73.85-38.3l11.59-15.98-15.44-3.8,3.85,19.78Zm-34.66-8.53l11.59-15.98-15.44-3.8,3.85,19.78Zm-12.8,16.98l11.59-15.98-15.44-3.8,3.85,19.78Zm-4.53-21.25l11.59-15.98-15.44-3.8,3.85,19.78Zm-12.8,16.98l11.59-15.98-15.44-3.8,3.85,19.78Zm47.47-8.45l11.59-15.98-15.44-3.8,3.85,19.78Zm4.53,21.25l11.59-15.98-15.44-3.8,3.85,19.78Zm-56.52-34.04l11.59-15.98-15.44-3.8,3.85,19.78Zm73.85,38.3l11.59-15.98-15.44-3.8,3.85,19.78Zm-34.66-8.53l11.59-15.98-15.44-3.8,3.85,19.78ZM231.56,105.84l-15.44-3.8,3.85,19.78,11.59-15.98Zm-34.66-8.53l-15.44-3.8,3.85,19.78,11.59-15.98Zm12.8-16.98l-15.44-3.8,3.85,19.78,11.59-15.98Zm4.53,21.25l-15.44-3.8,3.85,19.78,11.59-15.98Zm-102.64,436.49l11.59-15.98-15.44-3.8,3.85,19.78ZM192.37,76.07l-15.44-3.8,3.85,19.78,11.59-15.98Zm138.65,34.11l-15.44-3.8,3.85,19.78,11.59-15.98Zm-168.79-21.4l-15.44-3.8,3.85,19.78,11.59-15.98Zm-4.53-21.25l-15.44-3.8,3.85,19.78,11.59-15.98Zm17.33,4.26l-15.44-3.8,3.85,19.78,11.59-15.98Zm-46.25,7.45l11.59-15.98-15.44-3.8,3.85,19.78Zm50.78,13.79l-15.44-3.8,3.85,19.78,11.59-15.98Zm103.99,25.59l-15.44-3.8,3.85,19.78,11.59-15.98Zm12.8-16.98l-15.44-3.8,3.85,19.78,11.59-15.98Zm-51.99-12.79l-15.44-3.8,3.85,19.78,11.59-15.98Zm69.32,17.06l-15.44-3.8,3.85,19.78,11.59-15.98Zm4.53,21.25l-15.44-3.8,3.85,19.78,11.59-15.98Zm-17.33-4.26l-15.44-3.8,3.85,19.78,11.59-15.98Zm-39.19-29.77l-15.44-3.8,3.85,19.78,11.59-15.98Zm17.33,4.26l-15.44-3.8,3.85,19.78,11.59-15.98Zm-30.14,12.72l-15.44-3.8,3.85,19.78,11.59-15.98Zm17.33,4.26l-15.44-3.8,3.85,19.78,11.59-15.98Zm-39.19-29.77l-15.44-3.8,3.85,19.78,11.59-15.98ZM42.16,441.76l3.85,19.78,11.59-15.98-15.44-3.8Zm30.23,66.54l11.59-15.98-15.44-3.8,3.85,19.78Zm-17.33-4.26l11.59-15.98-15.44-3.8,3.85,19.78Zm-12.8,16.98l11.59-15.98-15.44-3.8,3.85,19.78Zm446.08,89.63l11.59-15.98-15.44-3.8,3.85,19.78ZM59.59,525.28l11.59-15.98-15.44-3.8,3.85,19.78Zm34.66,8.53l11.59-15.98-15.44-3.8,3.85,19.78Zm12.8-16.98l11.59-15.98-15.44-3.8,3.85,19.78Zm-30.14,12.72l11.59-15.98-15.44-3.8,3.85,19.78Zm12.8-16.98l11.59-15.98-15.44-3.8,3.85,19.78Zm-14.46-223.72l3.85,19.78,11.59-15.98-15.44-3.8Zm33.11-152.91l3.85,19.78,11.59-15.98-15.44-3.8ZM50.44,403.53l3.85,19.78,11.59-15.98-15.44-3.8ZM116.66,97.7l3.85,19.78,11.59-15.98-15.44-3.8Zm-24.83,114.68l3.85,19.78,11.59-15.98-15.44-3.8Zm8.28-38.23l3.85,19.78,11.59-15.98-15.44-3.8Zm-41.39,191.14l3.85,19.78,11.59-15.98-15.44-3.8Zm8.28-38.23l3.85,19.78,11.59-15.98-15.44-3.8Zm16.55-76.46l3.85,19.78,11.59-15.98-15.44-3.8Zm61.35-166.1l-15.44-3.8,3.85,19.78,11.59-15.98Z"/>
    </clipPath>
    <linearGradient id="linear-gradient-2" x1="178.98" y1="326.84" x2="1572.19" y2="537.16" gradientTransform="translate(-5.57 5.69) rotate(-.68)" gradientUnits="userSpaceOnUse">
      <stop offset=".03" stop-color="#393a39"/>
      <stop offset="1" stop-color="#171717"/>
    </linearGradient>
  </defs>
  <g id="Layer_1-2" data-name="Layer 1">
    <g class="cls-6">
      <path class="cls-4" d="M126.64,409.31c-37.22-25.75-5.77-43.22-41.26-72.98l.6-8.77c123.37,32.93,233.86,26.76,359.94,22.32,90.69-3.2,186.93-12.71,272.23-.77,27.78,3.9,55.02,6.34,82.24,16.48-86.18,56.99-172.06,101.34-260.36,121.31-115.55,26.04-306.62-3.83-413.39-77.59Z"/>
      <path class="cls-8" d="M126.69,413.79c-37.22-25.75-5.77-43.22-41.26-72.98l.6-8.77c123.37,32.93,233.86,26.76,359.94,22.32,90.69-3.2,186.93-12.71,272.23-.77,27.78,3.9,55.02,6.34,82.24,16.48-86.18,56.99-172.06,101.34-260.36,121.31-115.55,26.04-306.62-3.83-413.39-77.59Z"/>
      <g>
        <path class="cls-9" d="M133.08,415.86c-37.22-25.75-5.77-43.22-41.26-72.98l.6-8.77c123.37,32.93,233.86,26.76,359.94,22.32,90.69-3.2,186.93-12.71,272.23-.77,27.78,3.9,55.02,6.34,82.24,16.48-86.18,56.99-172.06,101.34-260.36,121.31-115.55,26.04-306.62-3.83-413.39-77.59Z"/>
        <g class="cls-5">
          <g class="cls-3">
            <g class="cls-2">
              <polygon class="cls-1" points="797.05 661.02 23.23 460.9 110.4 76.59 884.22 276.7 797.05 661.02"/>
            </g>
          </g>
        </g>
      </g>
      <path class="cls-7" d="M218.78,360.48l496.45-8.63c19.48-.38,38.43,6.37,53.85,19.19l102.69,85.33-37.81,166.66L196.17,460.14l22.61-99.67Z"/>
    </g>
  </g>
</svg>