<?xml version="1.0" encoding="UTF-8"?>
<svg id="Layer_2" data-name="Layer 2" xmlns="http://www.w3.org/2000/svg" xmlns:xlink="http://www.w3.org/1999/xlink" viewBox="0 0 1091.61 271.52">
  <defs>
    <style>
      .cls-1 {
        fill: url(#linear-gradient-2);
      }

      .cls-2 {
        fill: #fff;
      }

      .cls-3 {
        letter-spacing: .15em;
      }

      .cls-4 {
        fill: #f15d41;
      }

      .cls-5 {
        letter-spacing: .16em;
      }

      .cls-6 {
        letter-spacing: .15em;
      }

      .cls-7 {
        font-family: MontserratRoman-Regular, Montserrat;
        font-size: 51.48px;
        font-variation-settings: 'wght' 400;
      }

      .cls-7, .cls-8 {
        fill: #313436;
      }

      .cls-9 {
        fill: #f16141;
      }

      .cls-10 {
        fill: url(#linear-gradient);
      }

      .cls-11 {
        letter-spacing: .11em;
      }
    </style>
    <linearGradient id="linear-gradient" x1="-4.42" y1="34.79" x2="203.83" y2="186.78" gradientUnits="userSpaceOnUse">
      <stop offset=".03" stop-color="#f37545"/>
      <stop offset="1" stop-color="#f04a41"/>
    </linearGradient>
    <linearGradient id="linear-gradient-2" x1="-9.86" y1="29.39" x2="208.96" y2="189.09" xlink:href="#linear-gradient"/>
  </defs>
  <g id="Layer_1-2" data-name="Layer 1">
    <g>
      <path class="cls-9" d="M352.62,97.45h18.04v34.64c-4.63,3.5-10,6.18-16.09,8.05-6.1,1.87-12.23,2.8-18.41,2.8-8.86,0-16.82-1.89-23.89-5.67-7.07-3.78-12.62-9.02-16.64-15.73-4.02-6.71-6.03-14.29-6.03-22.74s2.01-16.04,6.03-22.75c4.02-6.71,9.61-11.95,16.76-15.73,7.15-3.78,15.2-5.67,24.14-5.67,7.48,0,14.26,1.26,20.36,3.78,6.1,2.52,11.22,6.18,15.36,10.98l-12.68,11.71c-6.09-6.42-13.45-9.63-22.07-9.63-5.45,0-10.28,1.14-14.51,3.41-4.23,2.28-7.52,5.49-9.87,9.64-2.36,4.15-3.54,8.9-3.54,14.27s1.18,10,3.54,14.15c2.36,4.15,5.63,7.38,9.81,9.7,4.19,2.32,8.96,3.48,14.32,3.48,5.69,0,10.81-1.22,15.36-3.66v-25Z"/>
      <path class="cls-8" d="M437.47,82.15c5.44,4.84,8.17,12.13,8.17,21.89v37.44h-17.8v-8.17c-3.58,6.1-10.24,9.15-19.99,9.15-5.04,0-9.41-.85-13.1-2.56-3.7-1.71-6.52-4.06-8.47-7.07-1.95-3.01-2.93-6.42-2.93-10.25,0-6.1,2.29-10.89,6.89-14.39,4.59-3.49,11.68-5.24,21.27-5.24h15.12c0-4.15-1.26-7.34-3.78-9.57-2.52-2.24-6.3-3.35-11.34-3.35-3.5,0-6.93,.55-10.3,1.65-3.37,1.1-6.24,2.58-8.59,4.45l-6.83-13.29c3.57-2.52,7.86-4.47,12.86-5.85,5-1.38,10.14-2.07,15.42-2.07,10.16,0,17.96,2.42,23.41,7.26Zm-16.21,45.25c2.52-1.5,4.31-3.72,5.36-6.65v-6.71h-13.04c-7.8,0-11.7,2.56-11.7,7.68,0,2.44,.95,4.37,2.87,5.79,1.91,1.42,4.53,2.13,7.86,2.13s6.14-.75,8.65-2.26Z"/>
      <path class="cls-8" d="M490.19,77.33c3.86-1.63,8.31-2.44,13.35-2.44v17.56c-2.11-.16-3.54-.24-4.27-.24-5.45,0-9.71,1.52-12.8,4.57-3.09,3.05-4.63,7.62-4.63,13.72v30.98h-19.02V75.87h18.16v8.66c2.27-3.17,5.34-5.57,9.2-7.2Z"/>
      <path class="cls-8" d="M564.37,82.15c5.44,4.84,8.17,12.13,8.17,21.89v37.44h-17.8v-8.17c-3.58,6.1-10.24,9.15-19.99,9.15-5.04,0-9.41-.85-13.1-2.56-3.7-1.71-6.52-4.06-8.47-7.07-1.95-3.01-2.93-6.42-2.93-10.25,0-6.1,2.3-10.89,6.89-14.39,4.59-3.49,11.68-5.24,21.27-5.24h15.12c0-4.15-1.26-7.34-3.78-9.57-2.52-2.24-6.3-3.35-11.34-3.35-3.5,0-6.93,.55-10.3,1.65-3.37,1.1-6.24,2.58-8.59,4.45l-6.83-13.29c3.58-2.52,7.86-4.47,12.86-5.85,5-1.38,10.14-2.07,15.42-2.07,10.16,0,17.96,2.42,23.41,7.26Zm-16.21,45.25c2.52-1.5,4.31-3.72,5.36-6.65v-6.71h-13.04c-7.8,0-11.7,2.56-11.7,7.68,0,2.44,.95,4.37,2.86,5.79,1.91,1.42,4.53,2.13,7.86,2.13s6.14-.75,8.65-2.26Z"/>
      <path class="cls-8" d="M658.11,75.87v54.64c0,12.03-3.13,20.98-9.39,26.83-6.26,5.85-15.4,8.78-27.43,8.78-6.34,0-12.35-.77-18.04-2.32-5.69-1.54-10.4-3.78-14.14-6.71l7.56-13.66c2.76,2.28,6.26,4.09,10.48,5.43,4.23,1.34,8.45,2.01,12.68,2.01,6.58,0,11.44-1.48,14.57-4.45,3.13-2.97,4.69-7.46,4.69-13.48v-2.8c-4.96,5.45-11.87,8.17-20.72,8.17-6.02,0-11.52-1.32-16.52-3.96-5-2.64-8.96-6.36-11.89-11.16-2.93-4.8-4.39-10.32-4.39-16.59s1.46-11.79,4.39-16.59c2.93-4.8,6.89-8.52,11.89-11.16,5-2.64,10.5-3.96,16.52-3.96,9.51,0,16.74,3.13,21.7,9.39v-8.42h18.04Zm-23.59,42.38c3.21-2.97,4.82-6.85,4.82-11.65s-1.61-8.68-4.82-11.65c-3.21-2.97-7.34-4.45-12.37-4.45s-9.18,1.49-12.43,4.45c-3.25,2.97-4.88,6.85-4.88,11.65s1.62,8.68,4.88,11.65c3.25,2.97,7.39,4.45,12.43,4.45s9.16-1.48,12.37-4.45Z"/>
      <path class="cls-8" d="M739.67,114.04h-49.61c.89,4.07,3.01,7.28,6.34,9.63,3.33,2.36,7.48,3.54,12.43,3.54,3.41,0,6.44-.51,9.08-1.52,2.64-1.02,5.1-2.62,7.37-4.82l10.12,10.98c-6.18,7.07-15.2,10.61-27.06,10.61-7.4,0-13.94-1.44-19.63-4.33-5.69-2.89-10.08-6.89-13.17-12.01-3.09-5.12-4.63-10.93-4.63-17.44s1.52-12.21,4.57-17.38c3.05-5.16,7.23-9.19,12.56-12.07,5.32-2.89,11.28-4.33,17.86-4.33s12.23,1.38,17.43,4.15c5.2,2.77,9.28,6.73,12.25,11.89,2.97,5.16,4.45,11.16,4.45,17.99,0,.24-.12,1.95-.37,5.12Zm-44.5-21.1c-2.93,2.44-4.71,5.77-5.36,10h32.31c-.65-4.15-2.44-7.46-5.36-9.94-2.93-2.48-6.5-3.72-10.73-3.72s-7.92,1.22-10.85,3.66Z"/>
      <path class="cls-8" d="M889.31,79.1c5,2.81,8.92,6.75,11.76,11.83,2.84,5.08,4.27,11,4.27,17.74s-1.42,12.66-4.27,17.74c-2.84,5.08-6.77,9.03-11.76,11.83-5,2.8-10.54,4.21-16.64,4.21-8.37,0-14.95-2.64-19.75-7.93v30.61h-19.02V75.87h18.16v7.56c4.71-5.69,11.58-8.54,20.6-8.54,6.09,0,11.64,1.4,16.64,4.21Zm-7.92,42.81c3.13-3.29,4.69-7.7,4.69-13.23s-1.57-9.94-4.69-13.23c-3.13-3.29-7.13-4.94-12.01-4.94s-8.88,1.65-12.01,4.94c-3.13,3.29-4.69,7.7-4.69,13.23s1.56,9.94,4.69,13.23c3.13,3.29,7.13,4.94,12.01,4.94s8.88-1.65,12.01-4.94Z"/>
      <path class="cls-8" d="M981.89,114.04h-49.61c.89,4.07,3.01,7.28,6.34,9.63,3.33,2.36,7.48,3.54,12.43,3.54,3.41,0,6.44-.51,9.08-1.52,2.64-1.02,5.1-2.62,7.37-4.82l10.12,10.98c-6.18,7.07-15.2,10.61-27.06,10.61-7.4,0-13.94-1.44-19.63-4.33-5.69-2.89-10.08-6.89-13.17-12.01-3.09-5.12-4.63-10.93-4.63-17.44s1.52-12.21,4.57-17.38c3.05-5.16,7.23-9.19,12.56-12.07,5.32-2.89,11.28-4.33,17.86-4.33s12.23,1.38,17.43,4.15c5.2,2.77,9.28,6.73,12.25,11.89,2.97,5.16,4.45,11.16,4.45,17.99,0,.24-.12,1.95-.37,5.12Zm-44.5-21.1c-2.93,2.44-4.71,5.77-5.36,10h32.31c-.65-4.15-2.44-7.46-5.36-9.94-2.93-2.48-6.5-3.72-10.73-3.72s-7.92,1.22-10.85,3.66Z"/>
      <path class="cls-8" d="M1022.31,77.33c3.86-1.63,8.31-2.44,13.35-2.44v17.56c-2.11-.16-3.54-.24-4.27-.24-5.45,0-9.71,1.52-12.8,4.57-3.09,3.05-4.63,7.62-4.63,13.72v30.98h-19.02V75.87h18.16v8.66c2.27-3.17,5.34-5.57,9.2-7.2Z"/>
      <path class="cls-8" d="M1091.61,138.31c-1.87,1.38-4.17,2.42-6.89,3.11-2.72,.69-5.59,1.04-8.59,1.04-7.8,0-13.84-1.99-18.1-5.98-4.27-3.98-6.4-9.84-6.4-17.56v-26.95h-10.12v-14.64h10.12v-15.98h19.02v15.98h16.34v14.64h-16.34v26.71c0,2.77,.71,4.9,2.13,6.4,1.42,1.5,3.43,2.26,6.04,2.26,3.01,0,5.56-.81,7.68-2.44l5.12,13.42Z"/>
      <path class="cls-9" d="M802.88,141.23l-20.6-29.64-37.34,53.74h-22.67l48.68-67.52-29.99-41.95h22.43l19.63,27.69,36.36-50.76h21.33l-46.85,64.3,31.82,44.15h-22.8Z"/>
      <text class="cls-7" transform="translate(301.68 226.07)"><tspan class="cls-6" x="0" y="0">E</tspan><tspan class="cls-5" x="42.26" y="0">quipment </tspan><tspan class="cls-3" x="389.53" y="0">T</tspan><tspan class="cls-11" x="426.59" y="0">r</tspan><tspan class="cls-5" x="453.05" y="0">ading L</tspan><tspan class="cls-3" x="703.69" y="0">L</tspan><tspan class="cls-5" x="741.53" y="0">C</tspan></text>
      <g>
        <rect class="cls-10" x="20.45" y="24.64" width="226.96" height="222.23"/>
        <path class="cls-1" d="M68.95,271.52h-7.97c1.75-.28,3.5-.56,5.26-.84-1.14-.21-2.28-.17-3.42-.21-13.19-.52-25.79-2.98-36.96-10.66-11.68-8.03-19.1-18.98-22.84-32.51C.15,216.94,.03,206.25,.01,195.65c-.05-42.17,.07-84.33,.34-126.5,.05-7.22,.68-14.5,1.83-21.62,1.26-7.8,4.53-14.95,8.93-21.63,6.02-9.14,14.26-15.49,24.01-19.97,7.11-3.26,14.78-4.75,22.57-5.11C67.41,.37,77.15,0,86.87,0c40.31,.04,80.61,.13,120.92,.44,13.38,.1,26.15,2.95,37.44,10.76,11.56,8,18.9,18.9,22.58,32.36,2.62,9.58,2.94,19.45,2.98,29.26,.15,41.37,.15,82.75,0,124.12-.03,7.68-.4,15.45-1.56,23.03-3.45,22.5-15.73,38.22-37.2,46.39-10.2,3.88-20.97,4.38-31.66,4.43-42.26,.19-84.52,.08-126.78,.11-1.55,0-3.09,.4-4.64,.61Zm133.5-111.44c-.16,1.48-.2,2.44-.38,3.38-5.65,29.16-29.64,52.47-59.06,57.04-25.54,3.96-47.39-3.68-64.92-22.49-25.21-27.05-25.49-68.69-.98-96.38,12.97-14.65,29.42-22.62,48.89-24.43,2.06-.19,3.19,.41,4.44,2.27,2.68,4,5.51,8.08,9.03,11.3,7.39,6.74,16.6,8.72,26.39,8.4,5.14-.17,5.17,1.12,4.92-4.9-.08-1.98,.43-2.86,2.65-2.82,6.2,.13,12.4-.01,18.6,.06,1.83,.02,2.55-.59,2.48-2.46-.11-2.83-.02-5.67-.02-8.5q0-3.67-3.55-3.67c-5.85,0-11.7,0-17.54,0-1.14,0-2.47,.19-2.49-1.56-.03-2.44,0-4.88,0-7.71h22.39v-8.58c-5.48,0-10.78,.07-16.07-.02-7.3-.12-6.21,1.2-6.38-6.57-.05-2.15,.62-2.99,2.88-2.94,6.11,.13,12.23,0,18.34,.1,1.83,.03,2.56-.47,2.5-2.36-.11-3.19-.17-6.39,0-9.57,.12-2.22-.83-2.72-2.81-2.69-5.05,.08-10.1,.03-15.15,.02-5.45-.01-5.5-.02-5.67-5.34-.05-1.71-.66-2.37-2.38-2.29-2.48,.11-4.96-.01-7.44,.06-15.4,.44-28.9,10.86-33.17,25.69-.51,1.76-1.31,2.34-3.11,2.44-10.61,.61-20.8,3.05-30.57,7.29-52.24,22.64-72.74,84.99-44.04,134,19.17,32.73,56.53,51,94.01,45.4,31.75-4.74,55.18-21.73,70.47-49.89,8.8-16.21,11.16-33.79,10.59-51.96-.06-1.77-.97-1.98-2.39-1.98-8.59,.03-17.19,.07-25.78,0-2.1-.02-3.39,.85-4.09,2.68-1.98,5.16-1.99,10.39-.21,15.59,.79,2.31,2.42,3.62,5.06,3.4,1.39-.11,2.8-.02,4.6-.02Zm-115.92-15.58c-4.39,6.93-5.12,14.03-.63,20.66,2.13,3.14,2.79,6.07,2.61,9.55-.05,1.06-.04,2.13,0,3.19,.12,2.89,1.61,4.4,4.47,4.46,2.66,.05,5.32,.03,7.97,0,3.53-.03,4.88-1.24,4.84-4.76-.02-2.14,.58-2.94,2.84-2.93,14.79,.07,29.59,.05,44.38-.03,2.32-.01,3.29,.6,3.31,3.11,.02,3.38,1.47,4.58,4.79,4.61,2.66,.03,5.32,.04,7.97,0,2.86-.05,4.46-1.53,4.6-4.37,.11-2.21-.16-4.45,.1-6.64,.17-1.47,.67-3.07,1.52-4.26,2.44-3.43,4.23-7.15,3.73-11.34-.46-3.85-1.72-7.6-2.68-11.59,1.3-.02,3.53,.36,4.09-2.21,.49-2.25,.98-4.5,1.34-6.77,.37-2.3-.69-3.57-3.05-3.63-1.68-.04-3.39-.22-5.04,.01-3.11,.44-4.78-.67-5.81-3.73-2.87-8.46-8.71-13.57-17.62-15.45-11.96-2.52-23.85-2.64-35.87-.52-9.28,1.63-16.66,5.7-19.71,15.11-1.3,4.02-3.54,4.8-7.39,4.64-7.57-.31-7.73,.1-6.19,7.58q.92,4.48,5.43,5.32Z"/>
        <path class="cls-2" d="M214.69,192.36c-15.32,28.18-38.73,45.16-70.5,49.88-37.45,5.63-74.85-12.67-94-45.39-28.7-48.99-8.18-111.35,44.07-134,9.74-4.21,19.95-6.67,30.55-7.28,1.8-.09,2.6-.66,3.12-2.46,4.26-14.8,17.78-25.25,33.19-25.68,2.46-.09,4.96,.05,7.42-.05,1.7-.09,2.32,.57,2.36,2.27,.19,5.34,.24,5.34,5.67,5.34,4.68,0,9.41,.09,14.09,0v14.61c-5.63-.09-11.3,.05-16.97-.09-2.22-.05-2.88,.76-2.84,2.93,.14,7.76-.95,6.43,6.34,6.57,4.44,.09,8.94,.05,13.48,0v8.6h-19.76c0,2.84-.05,5.25,0,7.71,.05,1.75,1.37,1.56,2.51,1.56h17.26v14.61c-5.72-.05-11.49,.09-17.26-.05-2.22-.05-2.69,.85-2.65,2.84,.28,6.01,.24,4.73-4.92,4.87-9.79,.33-18.96-1.66-26.38-8.37-3.5-3.21-6.34-7.33-9.03-11.3-1.23-1.89-2.36-2.51-4.44-2.27-19.43,1.8-35.89,9.74-48.89,24.4-24.49,27.71-24.21,69.32,.99,96.41,17.54,18.77,39.39,26.43,64.92,22.46,29.41-4.54,53.43-27.85,59.06-57.02,.19-.95,.24-1.89,.38-3.4-1.8,0-3.22-.09-4.59,.05-.95,.05-1.8-.05-2.46-.38v-21.04c.47-.19,1.04-.24,1.7-.24,8.61,.05,17.16,0,25.77,0,1.42-.05,2.36,.19,2.41,1.94,.57,18.2-1.8,35.75-10.59,51.96Z"/>
        <path class="cls-2" d="M86.53,144.5q-4.51-.84-5.43-5.32c-1.54-7.48-1.38-7.89,6.19-7.58,3.85,.16,6.08-.62,7.39-4.64,3.05-9.4,10.43-13.47,19.71-15.11,12.01-2.11,23.91-2,35.87,.52,8.91,1.88,14.75,6.99,17.62,15.45,1.04,3.06,2.7,4.17,5.81,3.73,1.65-.23,3.36-.06,5.04-.01,2.36,.06,3.42,1.33,3.05,3.63-.36,2.27-.85,4.52-1.34,6.77-.56,2.58-2.79,2.19-4.09,2.21,.96,3.99,2.22,7.74,2.68,11.59,.5,4.19-1.29,7.91-3.73,11.34-.85,1.19-1.35,2.79-1.52,4.26-.25,2.19,.01,4.43-.1,6.64-.14,2.84-1.74,4.33-4.6,4.37-2.66,.04-5.32,.03-7.97,0-3.31-.03-4.77-1.23-4.79-4.61-.01-2.51-.98-3.12-3.31-3.11-14.79,.09-29.59,.1-44.38,.03-2.26-.01-2.86,.79-2.84,2.93,.04,3.52-1.31,4.73-4.84,4.76-2.66,.02-5.32,.04-7.97,0-2.86-.05-4.35-1.57-4.47-4.46-.04-1.06-.05-2.13,0-3.19,.18-3.47-.48-6.4-2.61-9.55-4.49-6.63-3.76-13.73,.63-20.66Zm75.54-9.15c-1-2.29-1.91-4.1-2.6-5.98-1.71-4.63-4.95-7.43-9.74-8.44-2.85-.6-5.7-1.3-8.58-1.69-9.93-1.35-19.72-.7-29.45,1.9-7.43,1.98-8.93,8.14-11.45,14.22h61.82Zm-2.28,13.84c-4,.03-7.27,3.3-7.27,7.25,0,3.97,3.27,7.25,7.25,7.28,4.07,.04,7.51-3.38,7.43-7.4-.07-3.97-3.4-7.16-7.42-7.13Zm-50.03,7.35c.03-3.96-3.19-7.23-7.19-7.3-4.04-.07-7.39,3.08-7.46,7-.07,4.15,3.18,7.47,7.31,7.45,4.02-.01,7.31-3.22,7.34-7.16Z"/>
        <path class="cls-4" d="M162.07,135.35h-61.82c2.52-6.08,4.02-12.23,11.45-14.22,9.74-2.6,19.52-3.24,29.45-1.9,2.88,.39,5.73,1.09,8.58,1.69,4.8,1.01,8.04,3.81,9.74,8.44,.69,1.89,1.6,3.7,2.6,5.98Z"/>
        <path class="cls-4" d="M159.79,149.19c4.02-.03,7.34,3.16,7.42,7.13,.07,4.02-3.36,7.44-7.43,7.4-3.98-.03-7.25-3.31-7.25-7.28,0-3.95,3.27-7.22,7.27-7.25Z"/>
        <path class="cls-4" d="M109.76,156.54c-.03,3.93-3.32,7.15-7.34,7.16-4.13,.01-7.38-3.3-7.31-7.45,.06-3.92,3.42-7.08,7.46-7,4,.07,7.22,3.34,7.19,7.3Z"/>
      </g>
    </g>
  </g>
</svg>