<?xml version="1.0" encoding="UTF-8"?>
<svg id="Layer_2" data-name="Layer 2" xmlns="http://www.w3.org/2000/svg" viewBox="0 0 100 100">
  <defs>
    <style>
        .cls-1 {
          fill: #ff530a;
        }
      </style>
  </defs>
  <g id="Layer_1-2" data-name="Layer 1">
    <g>
      <g id="health_report" data-name="health report">
        <path class="cls-1" d="M80.03,69.32h-3.51v-3.52c0-1.99-1.61-3.6-3.6-3.6s-3.6,1.61-3.6,3.6v3.51h-3.51c-1.99,0-3.6,1.61-3.6,3.6s1.61,3.6,3.6,3.6h3.51v3.51c0,1.99,1.61,3.6,3.6,3.6s3.6-1.61,3.6-3.6v-3.51h3.51c1.99,0,3.6-1.61,3.6-3.6s-1.61-3.6-3.6-3.6Z"/>
      </g>
      <g>
        <path class="cls-1" d="M72.92,100c-14.93,0-27.08-12.15-27.08-27.08s12.15-27.08,27.08-27.08,27.08,12.15,27.08,27.08-12.15,27.08-27.08,27.08Zm0-47.92c-11.49,0-20.83,9.35-20.83,20.83s9.35,20.83,20.83,20.83,20.83-9.35,20.83-20.83-9.35-20.83-20.83-20.83Z"/>
        <path class="cls-1" d="M51.58,87.5H11.46c-6.32,0-11.46-5.14-11.46-11.46V23.96c0-6.32,5.14-11.46,11.46-11.46h7.83v6.25h-7.83c-2.87,0-5.21,2.34-5.21,5.21v52.08c0,2.87,2.34,5.21,5.21,5.21H51.58v6.25Z"/>
        <path class="cls-1" d="M70.83,50h-6.25V23.96c0-2.87-2.34-5.21-5.21-5.21h-7.79v-6.25h7.79c6.32,0,11.46,5.14,11.46,11.46v26.04Z"/>
        <path class="cls-1" d="M46.88,27.08H23.96c-4.02,0-7.29-3.27-7.29-7.29V11.46c0-1.72,1.4-3.12,3.12-3.12h4.6C25.75,3.53,30.18,0,35.42,0s9.66,3.53,11.02,8.33h4.6c1.72,0,3.12,1.4,3.12,3.12v8.33c0,4.02-3.27,7.29-7.29,7.29ZM22.92,14.58v5.21c0,.57,.47,1.04,1.04,1.04h22.92c.58,0,1.04-.47,1.04-1.04v-5.21h-4.17c-1.72,0-3.12-1.4-3.12-3.13,0-2.87-2.34-5.21-5.21-5.21s-5.21,2.34-5.21,5.21c0,1.72-1.4,3.13-3.12,3.13h-4.17Z"/>
        <path class="cls-1" d="M15.62,33.33H55.21v6.25H15.62v-6.25Z"/>
        <path class="cls-1" d="M15.62,45.83h29.88v6.25H15.62v-6.25Z"/>
        <path class="cls-1" d="M15.62,58.33h22.67v6.25H15.62v-6.25Z"/>
      </g>
    </g>
  </g>
</svg>
