<?xml version="1.0" encoding="UTF-8"?>
<svg id="Layer_2" data-name="Layer 2" xmlns="http://www.w3.org/2000/svg" viewBox="0 0 98.01 98.01">
  <defs>
    <style>
        .cls-1 {
          fill: #ff530a;
        }
      </style>
  </defs>
  <g id="Layer_1-2" data-name="Layer 1">
    <path class="cls-1" d="M94.24,33.63c-2.09-1.67-4.71-2.43-7.37-2.13-1.49,.17-2.9,.65-4.14,1.42v-8.03c0-.81-.32-1.59-.9-2.17L60.01,.9c-.57-.57-1.35-.9-2.17-.9H11.22C5.03,0,0,5.03,0,11.22V86.79c0,6.19,5.03,11.22,11.22,11.22h60.29c6.19,0,11.22-5.03,11.22-11.22v-22.68l13.09-16.39c3.45-4.32,2.74-10.64-1.58-14.09Zm-6.69,3.96c1.04-.12,2.05,.18,2.87,.83,1.68,1.34,1.96,3.8,.61,5.48l-.48,.6-6.1-4.87,.48-.6c.65-.81,1.58-1.33,2.62-1.44h0Zm-19.3,34.84l-6.1-4.87,18.49-23.14,6.1,4.87-18.49,23.14Zm-9.03,.63l4.32,3.45-5.15,2.02,.83-5.47Zm1.69-62.6l11.37,11.37h-11.37V10.46Zm15.7,76.33c0,2.81-2.29,5.1-5.1,5.1H11.22c-2.81,0-5.1-2.29-5.1-5.1V11.22c0-2.81,2.29-5.1,5.1-5.1H54.78V24.89c0,1.69,1.37,3.06,3.06,3.06h18.76v11.69l-22.35,27.98c-.34,.42-.55,.92-.63,1.45l-2.09,13.77c-.16,1.08,.26,2.17,1.12,2.85,.55,.44,1.23,.67,1.91,.67,.38,0,.75-.07,1.12-.21l12.97-5.08c.5-.2,.94-.52,1.28-.94l6.68-8.36v15.01h0Zm-28.53-50.11c0,1.69-1.37,3.06-3.06,3.06H19.37c-1.69,0-3.06-1.37-3.06-3.06s1.37-3.06,3.06-3.06h25.64c1.69,0,3.06,1.37,3.06,3.06Zm0,19.51c0,1.69-1.37,3.06-3.06,3.06H19.37c-1.69,0-3.06-1.37-3.06-3.06s1.37-3.06,3.06-3.06h25.64c1.69,0,3.06,1.37,3.06,3.06Zm0,19.51c0,1.69-1.37,3.06-3.06,3.06H19.37c-1.69,0-3.06-1.37-3.06-3.06s1.37-3.06,3.06-3.06h25.64c1.69,0,3.06,1.37,3.06,3.06Z"/>
  </g>
</svg>
