<?xml version="1.0" encoding="UTF-8"?>
<svg id="Layer_2" data-name="Layer 2" xmlns="http://www.w3.org/2000/svg" viewBox="0 0 103.82 112.39">
  <defs>
    <style>
        .cls-1 {
          fill: #ff530a;
        }
      </style>
  </defs>
  <g id="Layer_1-2" data-name="Layer 1">
    <path class="cls-1" d="M21.08,112.39H90.47c1.21,0,2.2-.98,2.2-2.2v-8.96h8.96c1.21,0,2.2-.98,2.2-2.2V2.2c0-1.21-.98-2.2-2.2-2.2H32.24c-1.21,0-2.2,.98-2.2,2.2V11.15h-8.96c-1.21,0-2.2,.98-2.2,2.2v15.64C7.31,30.19-1.09,40.56,.12,52.13c1.03,9.91,8.86,17.74,18.77,18.77v39.29c0,1.21,.98,2.2,2.2,2.2ZM34.43,4.39H99.43V96.85h-6.76V13.35c0-1.21-.98-2.2-2.2-2.2H34.43V4.39Zm53.84,11.15V108H23.28v-37.1c11.58-1.21,19.98-11.57,18.77-23.15-1.03-9.91-8.86-17.74-18.77-18.77V15.54H88.27ZM37.76,49.94c0,2.95-.78,5.85-2.28,8.4l-11.93-10.23,4.77-13.19c5.76,2.79,9.42,8.62,9.43,15.02Zm-16.68-16.68c1.03,0,2.06,.1,3.08,.29l-4.86,13.42-14.87,3.99c-.02-.33-.03-.67-.03-1.01,.01-9.21,7.47-16.67,16.68-16.68h0ZM5.28,55.27l15.15-4.06,12.36,10.61c-6.55,6.47-17.1,6.41-23.57-.14-1.78-1.81-3.13-4-3.94-6.4h0Zm67.4,41.58v-26.34c0-1.21-.98-2.2-2.2-2.2h-7.35c-1.21,0-2.2,.98-2.2,2.2v5.05h-5.16c-1.21,0-2.2,.98-2.2,2.2v3.73h-5.16c-1.21,0-2.2,.98-2.2,2.2v3.4h-5.16c-1.21,0-2.2,.98-2.2,2.2v7.57h-6.15c-1.21,0-2.2,.98-2.2,2.2s.98,2.2,2.2,2.2h46.1c1.21,0,2.2-.98,2.2-2.2s-.98-2.2-2.2-2.2h-6.15Zm-4.39-24.15v24.15h-2.96v-24.15h2.96Zm-7.35,7.24v16.9h-2.96v-16.9h2.96Zm-7.35,5.93v10.98h-2.96v-10.98h2.96Zm-10.32,5.6h2.96v5.38h-2.96v-5.38Zm-6.19-63.53c0-1.21,.98-2.2,2.2-2.2h38.85c1.21,0,2.2,.98,2.2,2.2s-.98,2.2-2.2,2.2H39.27c-1.21,0-2.2-.98-2.2-2.19h0s0,0,0,0Zm9.22,11.2c0-1.21,.98-2.2,2.2-2.2h29.63c1.21,0,2.2,.98,2.2,2.2s-.98,2.2-2.2,2.2h-29.63c-1.21,0-2.2-.98-2.2-2.19h0s0,0,0,0Zm0,11.2c0-1.21,.98-2.2,2.2-2.2h29.63c1.21,0,2.2,.98,2.2,2.2s-.98,2.2-2.2,2.2h-29.63c-1.21,0-2.2-.98-2.2-2.19h0s0,0,0,0Zm0,11.2c0-1.21,.98-2.2,2.2-2.2h29.63c1.21,0,2.2,.98,2.2,2.2s-.98,2.2-2.2,2.2h-29.63c-1.21,0-2.2-.98-2.2-2.19h0s0,0,0,0Z"/>
  </g>
</svg>
